<svg xmlns="http://www.w3.org/2000/svg" viewBox="0 0 568.27 114.24"><defs><style>.cls-1{fill:#2fc3da;}.cls-2{fill:#f44745;}.cls-3{fill:#fff;}.cls-4{fill:#ffc521;}</style></defs><title>LNMHacks 3.0 white</title><g id="Layer_2" data-name="Layer 2"><g id="Layer_1-2" data-name="Layer 1"><path class="cls-1" d="M53.16.12A17.49,17.49,0,0,0,57.25.05c4.68-.52,6.19,3,7.18,8.41C68.11,28.85,76.84,46.4,91.8,59.62c5.25,4.64,1.44,7.85,0,11.81-1.56,4.3-4,4.52-7.76,3.18-18.78-6.74-37.57-6.65-56.18.88-3.06,1.24-5.7,1.71-7.13-2.26-1.28-3.52-5.38-6.6-.85-11C34.87,47.81,42.11,28.76,46,8,47,2.59,48.65-.46,53.16.12Z"/><path class="cls-2" d="M101.68,39.67c-9.06-9.47-13.85-20-17-33.26A1.83,1.83,0,0,1,87,4.11c7.74,3,14.64,5.66,21.45,8.53.77.33,1.72,1.53,1.24,3.66-1.63,7.15-3.18,14.32-5,22.46A1.72,1.72,0,0,1,101.68,39.67Z"/><path class="cls-3" d="M37.37,95.2c13.11-4.39,24.72-4.34,37.72-.52a1.19,1.19,0,0,1,.42,1.95c-6.18,6.14-11.54,11.56-17.07,16.75a3.38,3.38,0,0,1-4.5,0c-5.45-5-10.75-10.22-16.95-16.23A1.2,1.2,0,0,1,37.37,95.2Z"/><path class="cls-4" d="M23.94,6c-1.46,13.56-6.31,24.1-14.06,34.85a1.71,1.71,0,0,1-3.08-.59C4.32,31.76,2.08,24.19.06,16.56A3,3,0,0,1,2,13.28C8.22,10.36,14.41,7.36,21.48,4A1.81,1.81,0,0,1,23.94,6Z"/><path class="cls-1" d="M138.27,4.82h10.28v96.79H138.27Z"/><path class="cls-1" d="M159.59,101.61V32.47h10.2v3.87s5.22-5.53,9.59-5.53c10.74,0,13.51,12.17,13.51,33.33v37.47H182.61V64.69c0-10.51-.77-17.28-5.76-17.28a13.67,13.67,0,0,0-7,2.48v51.72Z"/><path class="cls-1" d="M203.93,101.61V32.47h10.2v3.87s5.29-5.53,9.05-5.53c4.3,0,7.29,2.08,9.59,6.5,0,0,7.06-6.5,12.89-6.5,10.43,0,13.5,11.06,13.5,33.33v37.47H248.88V64.69c0-10.51-.76-17.28-5.37-17.28-3.07,0-7.13,2.62-7.13,2.62s.31,10.37.31,15.77v35.81H226.41V66.07c0-12.44-.62-18.66-5.38-18.66-3.37,0-6.82,2.48-6.82,2.48v51.72Z"/><path class="cls-3" d="M273.65,101.61V1.78h4.53v34.7s6.44-5.39,12.43-5.39c10.5,0,12.81,8.85,12.81,34.15v36.37h-4.61V65.66c0-20.33-1.22-27.1-8.82-27.1-6,0-11.81,4.7-11.81,4.7v58.35Z"/><path class="cls-3" d="M343.31,90.13c.23,4.15,2.45,5.53,5,6.08l-.23,6.64c-3.76,0-6.59-1.38-8.67-5.53,0,0-7.21,5.67-14.42,5.67-6.75,0-10.51-7-10.51-20.88,0-12.72,3.53-18.8,11.28-20.19l13-2.35v-6.5c0-10.5-2.61-14.51-7.52-14.51-5.52,0-14.5,2.07-14.5,2.07L316.53,34s8.44-2.9,14.89-2.9c8.36,0,11.89,7.33,11.89,22Zm-17-21.71c-5.15.83-7.06,5.26-7.06,13.55,0,8.85,2.15,14,6.36,14,6.22,0,13.2-4.84,13.2-4.84v-25Z"/><path class="cls-3" d="M380.32,32.89l-.23,7a58.63,58.63,0,0,0-9-1.38c-9.21,0-11.9,7.32-11.9,27.24,0,21.7,1.84,29.72,11.9,29.72a68.13,68.13,0,0,0,9.12-1.24l.16,7S373.57,103,370.27,103c-12.43,0-15.8-10-15.8-37.19,0-25.31,4.45-34.71,15.88-34.71C373.65,31.09,380.32,32.89,380.32,32.89Z"/><path class="cls-3" d="M391.44,101.61V1.78H396V61.23l6.53-.27L414.3,32.47h5.29L406.48,64.14l13.73,37.47h-5.37L402.56,68.28l-6.6.28v33.05Z"/><path class="cls-3" d="M453.05,40.91s-8.21-2.22-13.27-2.22c-4.76,0-9,2.35-9,11.76,0,7.19,1.92,9.26,10.28,11.75,9.82,2.9,13.5,6.08,13.5,19.36,0,16.18-5.6,21.43-14.81,21.43-4.68,0-13.11-2.49-13.11-2.49l.3-7.33s8.6,2.35,12.51,2.35c6.6,0,10.43-2.76,10.43-13.55,0-8.29-2.3-10.09-10.89-12.44-8.83-2.49-12.89-5.39-12.89-18.81,0-15.07,6.9-19.49,13.58-19.49,5.75,0,13.58,2.35,13.58,2.35Z"/><path class="cls-3" d="M474.06,91.54q6.1,7,12.6,7a12.46,12.46,0,0,0,5.15-1.11,11.78,11.78,0,0,0,4.39-3.49,18.23,18.23,0,0,0,3.05-6.08A30.08,30.08,0,0,0,500.39,79q0-9.8-4.15-14.76t-12.22-5h-4.49V52h4.14c4.87,0,8.55-1.6,11-4.79s3.7-7.87,3.7-14q0-8.3-2.73-12.63a9.06,9.06,0,0,0-8.21-4.34q-5.65,0-11.17,6.39V14.24Q482.17,9,488.51,9a12.79,12.79,0,0,1,5.74,1.37,13.6,13.6,0,0,1,4.82,4.15,22.16,22.16,0,0,1,3.31,6.92,34.27,34.27,0,0,1,1.24,9.7q0,18.74-11.18,24v.26a12.79,12.79,0,0,1,5.15,2.25,15.59,15.59,0,0,1,4.18,4.64,25,25,0,0,1,2.79,6.92,36.47,36.47,0,0,1,1,9,42.41,42.41,0,0,1-1.49,11.81A27.58,27.58,0,0,1,500,98.6a18,18,0,0,1-6.08,5.35,15.76,15.76,0,0,1-7.42,1.83,17.44,17.44,0,0,1-12.44-5Z"/><path class="cls-3" d="M520.5,105.45a3.17,3.17,0,0,1-2.68-1.83,8.47,8.47,0,0,1-1.1-4.44,8.72,8.72,0,0,1,1.08-4.5,3.13,3.13,0,0,1,2.7-1.83,2.47,2.47,0,0,1,1.47.49,4.56,4.56,0,0,1,1.2,1.3,7.38,7.38,0,0,1,.83,2,9.77,9.77,0,0,1,.31,2.54,9.19,9.19,0,0,1-.31,2.45,7.89,7.89,0,0,1-.83,2A4.36,4.36,0,0,1,522,105,2.47,2.47,0,0,1,520.5,105.45Z"/><path class="cls-3" d="M550.05,105.71a10.29,10.29,0,0,1-7.24-3,23.42,23.42,0,0,1-5.41-8.85A65.89,65.89,0,0,1,534,79.34a152.05,152.05,0,0,1-1.16-20.05q0-24.94,4.74-37.64T551.27,9q17,0,17,48a159.68,159.68,0,0,1-1.22,21,70.26,70.26,0,0,1-3.56,15.28,24.46,24.46,0,0,1-5.73,9.37A11,11,0,0,1,550.05,105.71ZM551,16.27q-6.3,0-9.61,10.57t-3.3,31.8q0,19.59,3.17,29.74t9.38,10.15A7,7,0,0,0,556,95.89a21.13,21.13,0,0,0,3.92-7.77,69.05,69.05,0,0,0,2.38-12.7A165.81,165.81,0,0,0,563.08,58Q563.08,16.26,551,16.27Z"/></g></g></svg>