<svg xmlns="http://www.w3.org/2000/svg" xmlns:xlink="http://www.w3.org/1999/xlink" viewBox="0 0 1000 1000"><defs><style>.cls-1,.cls-18,.cls-19,.cls-33,.cls-36{fill:none;}.cls-2{isolation:isolate;}.cls-3{fill:#41aace;}.cls-4,.cls-7{fill:#fff;}.cls-4{opacity:0.78;mix-blend-mode:screen;}.cls-11,.cls-22,.cls-24,.cls-27,.cls-32,.cls-37,.cls-41,.cls-43,.cls-46,.cls-48,.cls-49,.cls-5,.cls-6{opacity:0.5;}.cls-11,.cls-22,.cls-24,.cls-26,.cls-27,.cls-30,.cls-32,.cls-37,.cls-39,.cls-40,.cls-41,.cls-43,.cls-45,.cls-46,.cls-48,.cls-49,.cls-5,.cls-6{mix-blend-mode:multiply;}.cls-5{fill:url(#linear-gradient);}.cls-6{fill:url(#linear-gradient-2);}.cls-8{fill:#003768;}.cls-9{fill:#bddbe0;}.cls-10{fill:#185f93;}.cls-11{fill:url(#linear-gradient-3);}.cls-12,.cls-50{fill:#006e99;}.cls-13{fill:#a9cdd3;}.cls-14,.cls-54{fill:#f74c0f;}.cls-15{fill:#448cc7;}.cls-16{fill:#09376e;}.cls-17,.cls-19{opacity:0.2;}.cls-18,.cls-19{stroke:#09376e;}.cls-18,.cls-19,.cls-36{stroke-miterlimit:10;}.cls-20{fill:#0b4182;}.cls-21{fill:#f2f2f2;}.cls-22{fill:url(#linear-gradient-4);}.cls-23,.cls-51{fill:#d1e6e8;}.cls-24{fill:url(#linear-gradient-5);}.cls-25{clip-path:url(#clip-path);}.cls-26,.cls-30,.cls-39,.cls-40,.cls-45{opacity:0.4;}.cls-26{fill:url(#linear-gradient-6);}.cls-27{fill:url(#linear-gradient-7);}.cls-28{fill:#ff8b0d;}.cls-29{clip-path:url(#clip-path-2);}.cls-30{fill:url(#linear-gradient-8);}.cls-31{fill:#f7931e;}.cls-32{fill:url(#linear-gradient-9);}.cls-33,.cls-36{stroke:#448cc7;}.cls-33{stroke-linecap:round;stroke-linejoin:round;stroke-width:2px;}.cls-34{opacity:0.28;}.cls-35{clip-path:url(#clip-path-3);}.cls-37{fill:url(#linear-gradient-10);}.cls-38{clip-path:url(#clip-path-4);}.cls-39{fill:url(#linear-gradient-11);}.cls-40{fill:url(#linear-gradient-12);}.cls-41{fill:url(#linear-gradient-13);}.cls-42{fill:#a7c4c3;}.cls-43{fill:url(#linear-gradient-14);}.cls-44{fill:#f74d11;}.cls-45{fill:url(#linear-gradient-15);}.cls-46{fill:url(#linear-gradient-16);}.cls-47{clip-path:url(#clip-path-5);}.cls-48{fill:url(#linear-gradient-17);}.cls-49{fill:url(#linear-gradient-18);}.cls-50,.cls-51,.cls-52,.cls-54{fill-rule:evenodd;}.cls-52,.cls-53{fill:#f46300;}</style><linearGradient id="linear-gradient" x1="166.52" y1="503.15" x2="212.79" y2="474.18" gradientUnits="userSpaceOnUse"><stop offset="0.2" stop-color="#fff"/><stop offset="0.3" stop-color="#e6e6e6"/><stop offset="0.52" stop-color="#a5a5a5"/><stop offset="0.82" stop-color="#3e3e3e"/><stop offset="1"/></linearGradient><linearGradient id="linear-gradient-2" x1="139.65" y1="1012.41" x2="215.47" y2="922.06" gradientTransform="matrix(0.91, -0.41, 0.41, 0.91, -283.98, -264.08)" gradientUnits="userSpaceOnUse"><stop offset="0.06" stop-color="#fff"/><stop offset="0.39" stop-color="#a1a1a1"/><stop offset="0.81" stop-color="#2e2e2e"/><stop offset="1"/></linearGradient><linearGradient id="linear-gradient-3" x1="1551.65" y1="1935.48" x2="1775.16" y2="1894.39" gradientTransform="matrix(0.5, -0.32, 0.54, 0.84, -1525.58, -759.57)" gradientUnits="userSpaceOnUse"><stop offset="0.38" stop-color="#fff"/><stop offset="0.46" stop-color="#e6e6e6"/><stop offset="0.63" stop-color="#a5a5a5"/><stop offset="0.86" stop-color="#3e3e3e"/><stop offset="1"/></linearGradient><linearGradient id="linear-gradient-4" x1="266.27" y1="817.27" x2="416.88" y2="655.76" gradientUnits="userSpaceOnUse"><stop offset="0.13" stop-color="#fff"/><stop offset="0.81"/></linearGradient><linearGradient id="linear-gradient-5" x1="520.14" y1="317.28" x2="590.69" y2="265.55" gradientUnits="userSpaceOnUse"><stop offset="0.29" stop-color="#fff"/><stop offset="0.38" stop-color="#e6e6e6"/><stop offset="0.57" stop-color="#a5a5a5"/><stop offset="0.84" stop-color="#3e3e3e"/><stop offset="1"/></linearGradient><clipPath id="clip-path"><path class="cls-1" d="M636.71,391.53a6,6,0,0,1-2.7,4.68L548.8,445.4a6,6,0,0,1-5.4,0l-85.21-49.19a6,6,0,0,1-2.7-4.68V293.14a6,6,0,0,1,2.7-4.68l85.21-49.19a6,6,0,0,1,5.4,0L634,288.46a6,6,0,0,1,2.7,4.68Z"/></clipPath><linearGradient id="linear-gradient-6" x1="1744.91" y1="2062.72" x2="1975.66" y2="2020.3" gradientTransform="matrix(0.5, -0.32, 0.54, 0.84, -1525.58, -759.57)" gradientUnits="userSpaceOnUse"><stop offset="0.01" stop-color="#fff"/><stop offset="0.11" stop-color="#fafafa"/><stop offset="0.24" stop-color="#ececec"/><stop offset="0.37" stop-color="#d4d4d4"/><stop offset="0.51" stop-color="#b2b2b2"/><stop offset="0.65" stop-color="#878787"/><stop offset="0.8" stop-color="#525252"/><stop offset="0.95" stop-color="#151515"/><stop offset="1"/></linearGradient><linearGradient id="linear-gradient-7" x1="2591.4" y1="303.61" x2="2673.54" y2="215.52" gradientTransform="matrix(0.61, 0.01, 0.01, 0.61, -1015.22, 197.11)" gradientUnits="userSpaceOnUse"><stop offset="0.1" stop-color="#fff"/><stop offset="1"/></linearGradient><clipPath id="clip-path-2"><polygon class="cls-1" points="510.85 343.08 525.57 388.56 541.11 343.66 510.85 343.08"/></clipPath><linearGradient id="linear-gradient-8" x1="295.05" y1="2538.64" x2="322.6" y2="2509.09" gradientTransform="matrix(0.46, -0.59, 0.95, 0.74, -2016.82, -1343.13)" gradientUnits="userSpaceOnUse"><stop offset="0.1" stop-color="#fff"/><stop offset="0.21" stop-color="#fbfbfb"/><stop offset="0.3" stop-color="#f1f1f1"/><stop offset="0.38" stop-color="#dedede"/><stop offset="0.47" stop-color="#c5c5c5"/><stop offset="0.55" stop-color="#a4a4a4"/><stop offset="0.63" stop-color="#7b7b7b"/><stop offset="0.71" stop-color="#4b4b4b"/><stop offset="0.79" stop-color="#141414"/><stop offset="0.81"/></linearGradient><linearGradient id="linear-gradient-9" x1="636.83" y1="593.53" x2="683.4" y2="536.37" gradientUnits="userSpaceOnUse"><stop offset="0.24" stop-color="#fff"/><stop offset="0.34" stop-color="#e6e6e6"/><stop offset="0.54" stop-color="#a5a5a5"/><stop offset="0.83" stop-color="#3e3e3e"/><stop offset="1"/></linearGradient><clipPath id="clip-path-3"><circle class="cls-1" cx="644.7" cy="502.37" r="22.4" transform="translate(-166.4 603.02) rotate(-45)"/></clipPath><linearGradient id="linear-gradient-10" x1="511.6" y1="659.64" x2="565.59" y2="595.3" xlink:href="#linear-gradient"/><clipPath id="clip-path-4"><polygon class="cls-1" points="540.41 617.55 551.83 652.81 563.88 618 540.41 617.55"/></clipPath><linearGradient id="linear-gradient-11" x1="33.52" y1="2692.49" x2="54.88" y2="2669.58" xlink:href="#linear-gradient-8"/><linearGradient id="linear-gradient-12" x1="39.21" y1="2734.91" x2="58.47" y2="2714.25" xlink:href="#linear-gradient-8"/><linearGradient id="linear-gradient-13" x1="4885.04" y1="570.14" x2="5023.05" y2="422.16" gradientTransform="matrix(0.42, 0.03, 0.03, 0.43, -1641.6, 266.24)" gradientUnits="userSpaceOnUse"><stop offset="0.1" stop-color="#fff"/><stop offset="0.21" stop-color="#fbfbfb"/><stop offset="0.32" stop-color="#eee"/><stop offset="0.44" stop-color="#d9d9d9"/><stop offset="0.55" stop-color="#bcbcbc"/><stop offset="0.67" stop-color="#979797"/><stop offset="0.79" stop-color="#696969"/><stop offset="0.9" stop-color="#333"/><stop offset="1"/></linearGradient><linearGradient id="linear-gradient-14" x1="2808.03" y1="507.63" x2="2989.47" y2="313.06" gradientTransform="matrix(0.53, -0.02, -0.02, 0.53, -1222.49, 206.14)" gradientUnits="userSpaceOnUse"><stop offset="0.18" stop-color="#fff"/><stop offset="0.26" stop-color="#f9f9f9"/><stop offset="0.36" stop-color="#e7e7e7"/><stop offset="0.48" stop-color="#c9c9c9"/><stop offset="0.61" stop-color="#a0a0a0"/><stop offset="0.75" stop-color="#6c6c6c"/><stop offset="0.9" stop-color="#2d2d2d"/><stop offset="1"/></linearGradient><linearGradient id="linear-gradient-15" x1="97.44" y1="2370.19" x2="120.28" y2="2345.7" xlink:href="#linear-gradient-8"/><linearGradient id="linear-gradient-16" x1="235.33" y1="418.73" x2="320.63" y2="349.92" gradientTransform="matrix(1, 0, 0, 1, 0, 0)" xlink:href="#linear-gradient-3"/><clipPath id="clip-path-5"><path class="cls-1" d="M316.21,337.31c1.43,1.81,9,7.64,13.29,7.18s11.54-4.34,13-7.44c1.19,1.29,5.68,4.78,5.68,4.78L329,386.42,311.2,343.51Z"/></clipPath><linearGradient id="linear-gradient-17" x1="1522.21" y1="2014.02" x2="1736.25" y2="1974.67" xlink:href="#linear-gradient-3"/><linearGradient id="linear-gradient-18" x1="248.7" y1="473" x2="271.34" y2="460.79" xlink:href="#linear-gradient"/></defs><title>coming soon poster</title><g class="cls-2"><g id="Layer_4" data-name="Layer 4"><rect x="4" y="-9.01" width="996" height="1009.01"/></g><g id="Layer_3" data-name="Layer 3"><path class="cls-3" d="M444.37,395.18a6,6,0,0,1-2.7,4.69l-85.2,49.19a6,6,0,0,1-5.41,0l-85.2-49.19a6,6,0,0,1-2.71-4.69V296.8a6,6,0,0,1,2.71-4.69l85.2-49.19a6,6,0,0,1,5.41,0l85.2,49.19a6,6,0,0,1,2.7,4.69Z"/><path class="cls-3" d="M640.92,720.84a6,6,0,0,1-2.7,4.68L553,774.71a6,6,0,0,1-5.4,0L462.4,725.52a6,6,0,0,1-2.7-4.68V622.45a6,6,0,0,1,2.7-4.69l85.21-49.18a6,6,0,0,1,5.4,0l85.21,49.18a6,6,0,0,1,2.7,4.69Z"/><path class="cls-3" d="M635.14,393.26a6,6,0,0,1-2.7,4.68l-85.21,49.19a6,6,0,0,1-5.4,0l-85.21-49.19a6,6,0,0,1-2.7-4.68V294.87a6,6,0,0,1,2.7-4.68L541.83,241a6,6,0,0,1,5.4,0l85.21,49.19a6,6,0,0,1,2.7,4.68Z"/><path class="cls-3" d="M452.08,724.69a6,6,0,0,1-2.7,4.68l-85.21,49.19a6,6,0,0,1-5.4,0l-85.21-49.19a6,6,0,0,1-2.7-4.68V626.3a6,6,0,0,1,2.7-4.68l85.21-49.19a6,6,0,0,1,5.4,0l85.21,49.19a6,6,0,0,1,2.7,4.68Z"/><path class="cls-3" d="M542.64,559a6,6,0,0,1-2.69,4.69l-85.21,49.19a6,6,0,0,1-5.41,0l-85.2-49.19a6,6,0,0,1-2.71-4.69V460.59a6,6,0,0,1,2.71-4.69l85.2-49.19a6,6,0,0,1,5.41,0L540,455.9a6,6,0,0,1,2.69,4.69Z"/><path class="cls-3" d="M731.48,555.12a6,6,0,0,1-2.69,4.68L643.58,609a6,6,0,0,1-5.41,0L553,559.8a6,6,0,0,1-2.71-4.68V456.73a6,6,0,0,1,2.71-4.68l85.2-49.19a6,6,0,0,1,5.41,0l85.21,49.19a6,6,0,0,1,2.69,4.68Z"/><path class="cls-3" d="M353.8,560.9a6,6,0,0,1-2.69,4.68L265.9,614.77a6,6,0,0,1-5.41,0l-85.2-49.19a6,6,0,0,1-2.71-4.68V462.51a6,6,0,0,1,2.71-4.68l85.2-49.19a6,6,0,0,1,5.41,0l85.21,49.19a6,6,0,0,1,2.69,4.68Z"/><path class="cls-4" d="M355.53,562.17a6.13,6.13,0,0,1-2.77,4.8L265.42,617.4a6.14,6.14,0,0,1-5.54,0L172.54,567a6.14,6.14,0,0,1-2.78-4.8V461.32a6.16,6.16,0,0,1,2.78-4.81l87.34-50.42a6.14,6.14,0,0,1,5.54,0l87.34,50.42a6.15,6.15,0,0,1,2.77,4.81Z"/><path class="cls-3" d="M353.26,560.93a6,6,0,0,1-2.7,4.69l-85.21,49.19a6,6,0,0,1-5.4,0l-85.21-49.19a6,6,0,0,1-2.7-4.69V462.55a6,6,0,0,1,2.7-4.69L260,408.67a6,6,0,0,1,5.4,0l85.21,49.19a6,6,0,0,1,2.7,4.69Z"/><polygon class="cls-5" points="226.42 500.39 173.75 522.87 173.91 463.78 187.09 456.03 226.42 500.39"/><polygon class="cls-6" points="263.61 491.07 274.72 490.94 282.9 495.09 291.36 510.26 328.06 555.58 291.06 610.88 232.9 606.13 211.31 559.74 251.57 502.14 263.61 491.07"/><path class="cls-3" d="M175.43,457.82a39.38,39.38,0,1,1,39.38,39.38A39.39,39.39,0,0,1,175.43,457.82Z"/><path class="cls-7" d="M256.65,458.48a42.1,42.1,0,1,0-42.1,42.09h0A42.09,42.09,0,0,0,256.65,458.48ZM244,479.72a52.55,52.55,0,0,0-9.47-3.55,77.48,77.48,0,0,0,2-15.92h16.6a38.37,38.37,0,0,1-7.1,20.56C245.32,480.43,244.66,480.07,244,479.72ZM245.89,436a38.33,38.33,0,0,1,7.17,20.66H236.45a76.39,76.39,0,0,0-2-16,53.21,53.21,0,0,0,9.46-3.55C244.6,436.77,245.25,436.4,245.89,436Zm-13,20.66H216.33V443.15A76.11,76.11,0,0,0,231,441.49,71.08,71.08,0,0,1,232.91,456.7Zm-16.58-17.08v-19.5a11.33,11.33,0,0,1,4.93,2.56c3.55,3,6.68,8.42,8.81,15.38A71.17,71.17,0,0,1,216.33,439.62Zm-8.48-16.94a11.33,11.33,0,0,1,4.93-2.56V439.6A73.6,73.6,0,0,1,199.05,438a46,46,0,0,1,2.84-7.28A25.33,25.33,0,0,1,207.85,422.68Zm4.93,20.49V456.7H196.21a72.45,72.45,0,0,1,1.91-15.22A78.27,78.27,0,0,0,212.78,443.17ZM192.65,456.7h-16.6a38.39,38.39,0,0,1,7.2-20.71,48.31,48.31,0,0,0,11.39,4.64A77.37,77.37,0,0,0,192.65,456.7Zm0,3.55a76.4,76.4,0,0,0,2,16,48.31,48.31,0,0,0-11.43,4.68,38.28,38.28,0,0,1-7.16-20.64Zm3.54,0h16.58v13.41a78.68,78.68,0,0,0-14.71,1.71A71.55,71.55,0,0,1,196.2,460.25Zm16.58,17v19.6a11.33,11.33,0,0,1-4.93-2.56c-3.57-3-6.71-8.46-8.84-15.47A73.92,73.92,0,0,1,212.78,477.23Zm8.48,17a11.33,11.33,0,0,1-4.93,2.56V477.2a72.31,72.31,0,0,1,13.77,1.55,46.33,46.33,0,0,1-2.88,7.44A25.33,25.33,0,0,1,221.26,494.27Zm-4.93-20.6V460.25h16.56A71.82,71.82,0,0,1,231,475.32,78,78,0,0,0,216.33,473.67Zm27.33-40.45a47,47,0,0,1-10.14,4,51.3,51.3,0,0,0-3.12-8.05,31.17,31.17,0,0,0-5.34-7.78,38.45,38.45,0,0,1,16.75,9.83C242.45,431.86,243.07,432.53,243.66,433.22Zm-39.6-11.83c-3.6,3.73-6.5,9.21-8.48,15.8a48.32,48.32,0,0,1-8.69-3.26c-.49-.25-.93-.51-1.39-.77.58-.66,1.17-1.31,1.8-1.94A38.48,38.48,0,0,1,204.06,421.39Zm-18.62,62.33c.5-.28,1-.56,1.5-.82a48.23,48.23,0,0,1,8.63-3.24,50.84,50.84,0,0,0,3.14,8.12,30.91,30.91,0,0,0,5.34,7.78,38.45,38.45,0,0,1-16.75-9.83C186.65,485.08,186,484.41,185.44,483.72Zm39.61,11.84c3.63-3.76,6.55-9.29,8.53-15.95a47.08,47.08,0,0,1,10.17,4c-.62.72-1.27,1.43-1.94,2.1A38.39,38.39,0,0,1,225.05,495.56Z"/><path class="cls-7" d="M335.77,515.89a25,25,0,0,0-10.6-6.81,24,24,0,0,0-23.71-20.71,26,26,0,0,0-3.07.19,31.53,31.53,0,0,0-53.93,13.56,28,28,0,0,0,5.26,55.53h67.73a24.89,24.89,0,0,0,18.32-41.76Zm0,0"/><path class="cls-3" d="M266.85,498.79a2.63,2.63,0,0,0-2.63,2.63v40.09a2.62,2.62,0,0,0,2.63,2.62h40.09a2.62,2.62,0,0,0,2.63-2.62A42.77,42.77,0,0,0,266.85,498.79Zm2.62,32.6V520.08a19.72,19.72,0,0,1,18.81,18.8H277A8.39,8.39,0,0,0,269.47,531.39Zm24.06,7.49a25,25,0,0,0-24.06-24v-10.7a37.53,37.53,0,0,1,34.76,34.75Z"/><path class="cls-8" d="M257,564.94h-4.24l-3.49,5.31H163.58c-1.48,0-2.47.19-2.22.42l-.51,9a6.93,6.93,0,0,0,2.48.28h80.4a7.26,7.26,0,0,0,2.52-.28l10.69-9c.05,0,0-.07,0-.11l.06,0Z"/><path class="cls-9" d="M246.25,574.09a7.17,7.17,0,0,1-2.52.29h-80.4a6.84,6.84,0,0,1-2.48-.29l.51-9c-.25-.23.74-.41,2.22-.41h91.19c1.47,0,2.45.18,2.17.41Z"/><path class="cls-8" d="M162.69,518.88h80.4a2.18,2.18,0,0,1,2.18,2.18v56.81a2.18,2.18,0,0,1-2.18,2.18h-80.4a2.17,2.17,0,0,1-2.17-2.17V521.06A2.17,2.17,0,0,1,162.69,518.88Z"/><path class="cls-10" d="M568,419.54a1.54,1.54,0,1,1,1.54,1.43A1.44,1.44,0,0,1,568,419.54Z"/><path class="cls-10" d="M589.64,419.54a1.54,1.54,0,1,1,1.54,1.43A1.44,1.44,0,0,1,589.64,419.54Z"/><path class="cls-10" d="M603.16,419.54A1.54,1.54,0,1,1,604.7,421,1.43,1.43,0,0,1,603.16,419.54Z"/><polygon class="cls-11" points="424.24 325.48 329.26 381.88 266.49 343.41 265.28 294.82 358.28 241.15 424.24 325.48"/><path class="cls-12" d="M415.32,234.56a6.49,6.49,0,0,0-2.46,1.3A4.45,4.45,0,0,0,412,239c0,1.38-.25,10.29,2,16,.22.44.65.29.88-.06s.76-3.49.44-3.74-1-.51-1.26-1,.07-9.92.24-10.4.74-.39,1.15-.33A24.82,24.82,0,0,1,415.32,234.56Z"/><path class="cls-8" d="M423.67,240.14h-65a1.13,1.13,0,0,0-1.13,1.13V325.5a1.13,1.13,0,0,0,1.13,1.13h65a1.13,1.13,0,0,0,1.13-1.13V241.27A1.13,1.13,0,0,0,423.67,240.14Z"/><path class="cls-7" d="M416.11,307.69s-7.27,7.77-7.2,7.77h-41.8a.85.85,0,0,1-.85-.85V252.16a.84.84,0,0,1,.85-.84h48.17a.83.83,0,0,1,.83.84Z"/><path class="cls-13" d="M402.9,238.11H379.48a1,1,0,1,0,0,2.07h1.81a2.46,2.46,0,0,0,2.06,3.79H399a2.45,2.45,0,0,0,2.06-3.79h1.81a1,1,0,0,0,0-2.07Z"/><rect class="cls-9" x="373.53" y="260.61" width="35.31" height="1.43"/><rect class="cls-9" x="373.53" y="266.77" width="35.31" height="1.43"/><rect class="cls-9" x="373.53" y="273.36" width="35.31" height="1.43"/><rect class="cls-9" x="373.53" y="279.51" width="35.31" height="1.43"/><rect class="cls-9" x="373.53" y="286.1" width="35.31" height="1.43"/><rect class="cls-9" x="373.53" y="292.26" width="35.31" height="1.43"/><rect class="cls-9" x="373.53" y="298.84" width="35.31" height="1.43"/><path class="cls-13" d="M409.73,307.67h6.41l-7.25,7.8v-7A.84.84,0,0,1,409.73,307.67Z"/><path class="cls-9" d="M419.08,296.21s-.52,1.24-.78,1.24-.81-1.28-.81-1.28Z"/><path class="cls-7" d="M419.08,296.25a32.94,32.94,0,0,0,1.21-6.63l-4,0a41.67,41.67,0,0,0,1.2,6.62Z"/><path class="cls-9" d="M420.27,289.76c.41-2,1.22-31.42,1.22-31.42h-6.65s1.09,29.4,1.51,31.45C418.7,289.83,419.86,289.77,420.27,289.76Z"/><path class="cls-12" d="M418.18,234.83h0l3.33-.23c0-.28.25-4.24-3.33-4.3h0c-3.58.06-3.33,4-3.33,4.3l3.33.23h0Z"/><path class="cls-9" d="M418.16,257.42l.93.11v-.2l2.45-.08c0-.2.2-22.25,0-23.31-1.56,0-2.65,0-3.35,0s-1.79,0-3.34,0c-.23,1.06.11,22.91.11,23.11l2.3.28v.2Z"/><path class="cls-12" d="M414.8,258.65a.14.14,0,0,1-.15-.13v-1.67a.14.14,0,0,1,.15-.13h6.94a.14.14,0,0,1,.14.13v1.67a.13.13,0,0,1-.14.13Z"/><polygon class="cls-14" points="380.08 297.45 382.92 297.45 386.16 304.13 392.03 292.39 395.07 292.39 386.16 308.99 380.08 297.45"/><path class="cls-4" d="M641.45,725.92a6.19,6.19,0,0,1-2.77,4.81l-87.34,50.42a6.14,6.14,0,0,1-5.54,0l-87.34-50.42a6.18,6.18,0,0,1-2.78-4.81V625.07a6.18,6.18,0,0,1,2.78-4.81l87.34-50.42a6.14,6.14,0,0,1,5.54,0l87.34,50.42a6.19,6.19,0,0,1,2.77,4.81Z"/><path class="cls-3" d="M639.18,724.69a6,6,0,0,1-2.7,4.68l-85.2,49.19a6,6,0,0,1-5.41,0l-85.21-49.19a6,6,0,0,1-2.7-4.68V626.3a6,6,0,0,1,2.7-4.69l85.21-49.18a6,6,0,0,1,5.41,0l85.2,49.18a6.06,6.06,0,0,1,2.7,4.69Z"/><path class="cls-4" d="M735.87,556.35a6.19,6.19,0,0,1-2.77,4.81l-87.34,50.42a6.14,6.14,0,0,1-5.54,0l-87.34-50.42a6.18,6.18,0,0,1-2.78-4.81V455.5a6.18,6.18,0,0,1,2.78-4.81l87.34-50.42a6.14,6.14,0,0,1,5.54,0l87.34,50.42a6.19,6.19,0,0,1,2.77,4.81Z"/><path class="cls-3" d="M733.6,555.12a6,6,0,0,1-2.7,4.68L645.7,609a6,6,0,0,1-5.41,0L555.08,559.8a6,6,0,0,1-2.7-4.68V456.73a6,6,0,0,1,2.7-4.69l85.21-49.18a6,6,0,0,1,5.41,0L730.9,452a6.06,6.06,0,0,1,2.7,4.69Z"/><path class="cls-4" d="M450.69,727.85a6.16,6.16,0,0,1-2.77,4.8l-87.34,50.43a6.16,6.16,0,0,1-5.55,0l-87.34-50.43a6.13,6.13,0,0,1-2.77-4.8V627a6.15,6.15,0,0,1,2.77-4.81L355,571.77a6.16,6.16,0,0,1,5.55,0l87.34,50.42a6.18,6.18,0,0,1,2.77,4.81Z"/><path class="cls-3" d="M448.41,726.61a6,6,0,0,1-2.7,4.69l-85.2,49.19a6,6,0,0,1-5.41,0L269.89,731.3a6,6,0,0,1-2.7-4.69V628.23a6,6,0,0,1,2.7-4.69l85.21-49.18a6,6,0,0,1,5.41,0l85.2,49.18a6,6,0,0,1,2.7,4.69Z"/><path class="cls-4" d="M639.53,392.56a6.19,6.19,0,0,1-2.77,4.81l-87.34,50.42a6.16,6.16,0,0,1-5.55,0l-87.34-50.42a6.16,6.16,0,0,1-2.77-4.81V291.71a6.16,6.16,0,0,1,2.77-4.81l87.34-50.42a6.16,6.16,0,0,1,5.55,0l87.34,50.42a6.19,6.19,0,0,1,2.77,4.81Z"/><path class="cls-3" d="M637.25,391.33a6,6,0,0,1-2.7,4.68l-85.2,49.19a6,6,0,0,1-5.41,0L458.73,396a6,6,0,0,1-2.7-4.68V292.94a6.06,6.06,0,0,1,2.7-4.69l85.21-49.18a6,6,0,0,1,5.41,0l85.2,49.18a6.06,6.06,0,0,1,2.7,4.69Z"/><path class="cls-4" d="M448.76,394.49a6.16,6.16,0,0,1-2.77,4.8l-87.34,50.43a6.16,6.16,0,0,1-5.55,0l-87.34-50.43a6.13,6.13,0,0,1-2.77-4.8V293.64a6.15,6.15,0,0,1,2.77-4.81l87.34-50.42a6.16,6.16,0,0,1,5.55,0L446,288.83a6.18,6.18,0,0,1,2.77,4.81Z"/><path class="cls-3" d="M446.49,393.25a6,6,0,0,1-2.71,4.69l-85.2,49.19a6,6,0,0,1-5.41,0L268,397.94a6,6,0,0,1-2.71-4.69V294.87a6,6,0,0,1,2.71-4.69L353.17,241a6,6,0,0,1,5.41,0l85.2,49.18a6,6,0,0,1,2.71,4.69Z"/><g id="ml"><path class="cls-7" d="M355.29,694.93a7.94,7.94,0,0,1-7.81,8.06H283.11a7.93,7.93,0,0,1-7.8-8.06V631.5a7.92,7.92,0,0,1,7.8-8h64.37a7.93,7.93,0,0,1,7.81,8Z"/><rect class="cls-15" x="304.46" y="612.7" width="1.7" height="30.23"/><path class="cls-16" d="M308.49,612.7a3.18,3.18,0,1,1-3.18-3.18A3.18,3.18,0,0,1,308.49,612.7Z"/><rect class="cls-15" x="324.43" y="612.7" width="1.7" height="30.23"/><circle class="cls-16" cx="325.28" cy="612.7" r="3.18"/><rect class="cls-15" x="314.45" y="604.73" width="1.7" height="38.2"/><path class="cls-16" d="M318.47,604.73a3.18,3.18,0,1,1-3.17-3.17A3.17,3.17,0,0,1,318.47,604.73Z"/><rect class="cls-15" x="324.43" y="683.5" width="1.7" height="30.23"/><path class="cls-16" d="M322.1,713.73a3.18,3.18,0,1,1,3.18,3.18A3.18,3.18,0,0,1,322.1,713.73Z"/><rect class="cls-15" x="304.46" y="683.5" width="1.7" height="30.23"/><path class="cls-16" d="M302.14,713.73a3.18,3.18,0,1,1,3.17,3.18A3.17,3.17,0,0,1,302.14,713.73Z"/><rect class="cls-15" x="314.45" y="683.5" width="1.7" height="38.2"/><path class="cls-16" d="M312.12,721.7a3.18,3.18,0,1,1,3.18,3.18A3.17,3.17,0,0,1,312.12,721.7Z"/><rect class="cls-15" x="264.78" y="672.35" width="30.23" height="1.7"/><circle class="cls-16" cx="264.78" cy="673.2" r="3.18"/><rect class="cls-15" x="264.78" y="652.38" width="30.23" height="1.7"/><circle class="cls-16" cx="264.78" cy="653.23" r="3.18"/><rect class="cls-15" x="256.81" y="662.37" width="38.2" height="1.7"/><circle class="cls-16" cx="256.81" cy="663.22" r="3.18"/><rect class="cls-15" x="335.58" y="652.38" width="30.23" height="1.7"/><path class="cls-16" d="M365.81,656.41a3.18,3.18,0,1,1,3.18-3.18A3.17,3.17,0,0,1,365.81,656.41Z"/><rect class="cls-15" x="335.58" y="672.35" width="30.23" height="1.7"/><path class="cls-16" d="M365.81,676.38A3.18,3.18,0,1,1,369,673.2,3.17,3.17,0,0,1,365.81,676.38Z"/><rect class="cls-15" x="335.58" y="662.37" width="38.2" height="1.7"/><path class="cls-16" d="M373.78,666.39a3.18,3.18,0,1,1,3.18-3.17A3.18,3.18,0,0,1,373.78,666.39Z"/><rect class="cls-16" x="286.09" y="635.15" width="58.42" height="56.13" rx="4" ry="4"/><rect class="cls-15" x="290.99" y="640.78" width="48.62" height="44.88" rx="4" ry="4"/><g class="cls-17"><rect class="cls-18" x="307.2" y="655.12" width="16.18" height="16.18"/><polyline class="cls-18" points="317.55 654.83 317.55 648.93 322.39 645.92 322.39 639.9"/><polyline class="cls-18" points="313.04 654.83 313.04 648.42 308.2 645.41 308.2 639.39"/><polyline class="cls-18" points="313.04 671.61 313.04 677.5 308.2 680.51 308.2 686.53"/><polyline class="cls-18" points="317.55 671.61 317.55 678.01 322.39 681.02 322.39 687.04"/><polyline class="cls-18" points="306.9 660.96 301.01 660.96 298 656.12 289.6 656.12"/><polyline class="cls-18" points="306.9 665.47 300.5 665.47 297.49 670.31 289.09 670.31"/><polyline class="cls-18" points="323.69 665.47 329.58 665.47 332.59 670.31 340.99 670.31"/><polyline class="cls-18" points="323.69 660.96 330.09 660.96 333.1 656.12 341.5 656.12"/></g><rect class="cls-19" x="311.69" y="659.61" width="7.2" height="7.2" rx="1.19" ry="1.19"/><path class="cls-16" d="M425,623.84a14.61,14.61,0,0,1,7.74-4.94s1,5.07,0,7.35a8,8,0,0,1,3.42,2.79c1.4,2,8.37,12.3,9,13.31s-.17,4-1.52,4.82c-1,.64-3.3,1-4.31-.38a11.1,11.1,0,0,0-2.92-3c-1-.64-5.19,1-7.48-.64a5.29,5.29,0,0,1-2.15-5.7s-1.9.63-1.52,6.08,5.58,11.42,10.52,15.85,6.72,11.16,6.72,16.23H407.58c.89-9.76-5.58-14.83-5.58-28.53s10.4-25.86,22.7-25.86Z"/><path class="cls-16" d="M436.41,688.2c0-2.46,3.12-7.71,3.12-7.71l-15.93-1.81-15.93,1.81-4.92,20.69h41.7C444.45,693.13,436.41,690.67,436.41,688.2Z"/><rect class="cls-20" x="402.79" y="674.43" width="41.62" height="8.11" rx="1.51" ry="1.51"/><rect class="cls-20" x="398.65" y="697.58" width="49.91" height="8.11" rx="1.51" ry="1.51"/><path class="cls-7" d="M392.14,623.84a14.55,14.55,0,0,0-7.73-4.94s-1,5.07,0,7.35A8.08,8.08,0,0,0,381,629c-1.39,2-8.36,12.3-9,13.31s.18,4,1.52,4.82c1,.64,3.3,1,4.32-.38a11.23,11.23,0,0,1,2.91-3c1-.64,5.2,1,7.48-.64a5.31,5.31,0,0,0,2.16-5.7s1.9.63,1.52,6.08-5.58,11.42-10.52,15.85-6.72,11.16-6.72,16.23h34.86c-.88-9.76,5.58-14.83,5.58-28.53s-10.4-25.86-22.69-25.86Z"/><path class="cls-7" d="M406.3,688.2c0-2.46,3.12-7.71,3.12-7.71l-15.93-1.81-15.92,1.81s3.12,5.25,3.12,7.71-8.05,4.93-8.05,13h41.71C414.35,693.13,406.3,690.67,406.3,688.2Z"/><rect class="cls-21" x="372.68" y="674.43" width="41.62" height="8.11" rx="1.51" ry="1.51"/><rect class="cls-21" x="368.54" y="697.58" width="49.91" height="8.11" rx="1.51" ry="1.51"/><polygon class="cls-22" points="226.42 780.11 322.63 836 385.37 794.44 389.72 783.83 418.78 764.03 407.21 749.47 405.5 714.78 367.81 697.22 335.69 684.8 228.02 747.98 226.42 780.11"/><path class="cls-7" d="M364.94,730.24a8.26,8.26,0,1,0,8.55,7.94A8.25,8.25,0,0,0,364.94,730.24ZM364,704.76a33.75,33.75,0,1,0,35,32.49A33.75,33.75,0,0,0,364,704.76Zm1.89,51a17.33,17.33,0,1,1,16.67-17.95A17.34,17.34,0,0,1,365.89,755.8Zm57.21,0L420.31,763a2.35,2.35,0,0,1-2.85,1.41l-10.58-2.63a48,48,0,0,1-15.76,16.78l3.27,10.08a2.32,2.32,0,0,1-1.22,2.94l-7,3.28a2.33,2.33,0,0,1-3-1l-5.85-9.26A48.11,48.11,0,0,1,367,786.16a47.34,47.34,0,0,1-11.16-.91l-5.23,9.86a2.33,2.33,0,0,1-3,1.17l-7.24-2.75a2.35,2.35,0,0,1-1.43-2.85l2.63-10.76a47.9,47.9,0,0,1-16.3-15.35l-11.11,3.64a2.33,2.33,0,0,1-2.95-1.19l-3.32-7a2.35,2.35,0,0,1,.93-3l10.22-6.5a47.83,47.83,0,0,1-.43-22.23l-10.74-5.77a2.35,2.35,0,0,1-1.16-3l2.79-7.22a2.35,2.35,0,0,1,2.85-1.42l12,3a48,48,0,0,1,15-15.47l-4.08-11.44a2.33,2.33,0,0,1,1.11-3l6.92-3.5a2.37,2.37,0,0,1,3.08.87L353.64,692a2,2,0,0,1,.11.21,47.94,47.94,0,0,1,20.41-.57.2.2,0,0,0,0-.08l6.38-11.15a2.35,2.35,0,0,1,3-1.08l7.15,3a2.35,2.35,0,0,1,1.34,2.89L388.8,697A48,48,0,0,1,404,710.68l11-3.62a2.35,2.35,0,0,1,3,1.21l3.32,7a2.36,2.36,0,0,1-.95,3.06l-9.53,6.06a47.88,47.88,0,0,1,2.1,12.35,48.53,48.53,0,0,1-.83,10.77l9.86,5.3A2.36,2.36,0,0,1,423.1,755.77Z"/><path class="cls-23" d="M353.63,692.18a2.25,2.25,0,0,0-.11-.22l-7.18-10.65a2.37,2.37,0,0,0-3.08-.86l-6.92,3.5a2.33,2.33,0,0,0-1.11,3l4.08,11.43a48,48,0,0,0-15,15.48l-12-3a2.35,2.35,0,0,0-2.86,1.42l-2.79,7.22a2.34,2.34,0,0,0,1.16,3l10.74,5.77a47.74,47.74,0,0,0-1.07,12,47,47,0,0,0,1.5,10.22L308.73,757a2.34,2.34,0,0,0-.92,3l3.31,7a2.33,2.33,0,0,0,2.95,1.19l11.11-3.65a47.75,47.75,0,0,0,16.3,15.36l-2.63,10.75a2.34,2.34,0,0,0,1.43,2.85l7.24,2.76a2.35,2.35,0,0,0,3-1.17l5.23-9.86a47.25,47.25,0,0,0,9.12.92v-14a33.73,33.73,0,0,1-1-67.44c.32,0,.64,0,1,0v-14c-.49,0-1,0-1.47,0A47.26,47.26,0,0,0,353.63,692.18Z"/><path class="cls-23" d="M347.82,739.12a17.32,17.32,0,0,0,17,16.66V746.7a8.24,8.24,0,0,1,0-16.47h0v-9.05h-.35A17.33,17.33,0,0,0,347.82,739.12Z"/></g><g id="fintech"><polygon class="cls-24" points="595.51 299.75 565.65 319.05 548.17 328.7 504.54 291 568.13 251.49 595.51 299.75"/><g class="cls-25"><polygon class="cls-26" points="557.93 322.77 538.98 338.19 573.02 390.21 498.52 429.39 443.28 403.7 440.71 327.27 510.69 282.51 557.93 322.77"/></g><polygon class="cls-27" points="641.48 371.56 635.25 380.7 637 385.76 630.68 392.18 625.63 396.46 624.56 399.57 590.45 420.9 570.69 403.94 569.13 401.74 559.62 378.03 602.39 348.67 609.97 356.98 612.21 357.76 618.34 362.13 627.18 357.27 641.48 371.56"/><path class="cls-7" d="M626.94,360a23,23,0,0,0-7.63,1.39c-1.39.69-10.92,11.62-12.14,12.66s-1.39,1.56-.52,2.77,2.26,1.56,4.86.35,4.33-4.68,6.41-4.86a9.68,9.68,0,0,1,5.55.87c1.56.87,11.1,9.19,11.1,9.19s3.81-5,4.33-7.28a6.8,6.8,0,0,0,0-3.64Z"/><path class="cls-7" d="M604.44,388.62a1.94,1.94,0,0,1-2.69-.37h0a1.93,1.93,0,0,1-.21-2.7l4.26-4a1.94,1.94,0,0,1,2.69.37h0a1.94,1.94,0,0,1,.22,2.7Z"/><path class="cls-7" d="M607.7,391.78a1.93,1.93,0,0,1-2.68-.37h0a1.94,1.94,0,0,1-.22-2.7l4.27-4a1.94,1.94,0,0,1,2.69.37h0a1.93,1.93,0,0,1,.21,2.7Z"/><path class="cls-7" d="M611,395.06a1.94,1.94,0,0,1-2.69-.37h0a1.93,1.93,0,0,1-.21-2.7l4.26-4a2,2,0,0,1,2.69.37h0a2,2,0,0,1,.22,2.71Z"/><path class="cls-7" d="M614.37,398.28a2,2,0,0,1-2.69-.38h0a1.94,1.94,0,0,1-.22-2.7l4.27-4a1.94,1.94,0,0,1,2.69.37h0a1.93,1.93,0,0,1,.21,2.7Z"/><polygon class="cls-12" points="626.59 357.55 635.43 349.05 649.91 363.53 641.5 371.94 626.59 357.55"/><polygon class="cls-23" points="596 371.94 587.64 362.97 602.33 348.7 610.61 357.24 596 371.94"/><path class="cls-7" d="M637.24,383.22c-1.11-1.27-4.84-5.84-8.51-10.28s-7.27-8.74-8.35-9.74a38.93,38.93,0,0,0-4.32-3.4,14.91,14.91,0,0,0-4.12-2l-1.53,1.54h.11c1.1,0,2.92.83,4.58,1.95a38.08,38.08,0,0,1,4.12,3.25c.82.74,4.52,5.13,8.17,9.55s7.39,9,8.55,10.32a1.32,1.32,0,0,1,.39.89,1.4,1.4,0,0,1-.49,1,1.67,1.67,0,0,1-1,.45h0a15.1,15.1,0,0,1-2.93-2.17c-.61-.52-1.16-1-1.54-1.38l-.55-.52,0,0h0a.87.87,0,0,0-1.19,1.26l0,0h0l.56.53c.44.42,1.08,1.05,1.72,1.75a18.25,18.25,0,0,1,1.53,1.86,3.25,3.25,0,0,1,.58,1.09v0a2.07,2.07,0,0,1-1.78,1.59,6.58,6.58,0,0,1-1.13-.7c-1.6-1.19-4.1-3.32-4.1-3.32a.87.87,0,0,0-1.22,1.23s1,1.16,2,2.41c.51.63,1,1.29,1.41,1.82.19.27.36.5.46.68a1.28,1.28,0,0,1,.12.21.54.54,0,0,1,0,.08,1.6,1.6,0,0,1-.53,1,2.13,2.13,0,0,1-.89.54h0a27.36,27.36,0,0,1-3-1.9c-1.17-.81-2.17-1.56-2.17-1.56a.87.87,0,0,0-1.15,1.29s1,1.07,2,2.22c.5.57,1,1.16,1.35,1.63a5.71,5.71,0,0,1,.38.54c-.56,1.23-1.33,1.78-1.76,1.78a7.85,7.85,0,0,1-1.23-.71c-1.85-1.25-4.61-3.57-4.84-3.76s-3.89-3.76-7.64-7.42c-3.92-3.84-8.12-8-8.91-8.95a9.83,9.83,0,0,1-2.13-6,2.46,2.46,0,0,1,0-.28l-1.65,1.65a11.44,11.44,0,0,0,2.43,5.76c1,1.13,5.07,5.2,9,9.08s7.68,7.46,7.68,7.46l0,0s1.4,1.18,2.94,2.36c.77.59,1.57,1.19,2.27,1.65a9.82,9.82,0,0,0,1,.58,2.4,2.4,0,0,0,1,.29c1.63,0,2.81-1.38,3.55-3.17a1.69,1.69,0,0,0,.07-.36,1.46,1.46,0,0,0-.28-.8l.21.1a2.09,2.09,0,0,0,.83.25h.06a3.49,3.49,0,0,0,2.12-1.07,2.9,2.9,0,0,0,1-2.63,4.5,4.5,0,0,0-.16-.44,1.51,1.51,0,0,0,.33.13,2.64,2.64,0,0,0,.55.06,3.78,3.78,0,0,0,3.51-3.2v-.15a2.63,2.63,0,0,0-.12-.7l.21,0h0a3.32,3.32,0,0,0,3.2-3.16A3,3,0,0,0,637.24,383.22Z"/><polygon class="cls-28" points="658.01 231.01 641.54 244.99 657.97 247.41 658.01 231.01"/><path class="cls-28" d="M660.55,258.77a55.49,55.49,0,0,1,1.94,5.84,52.85,52.85,0,1,1-10.27-20l3.86-3.75a58.21,58.21,0,1,0,11.59,22.34,59,59,0,0,0-1.9-5.86Z"/><path class="cls-8" d="M574.72,371.35v-.55c-2.45-16.31-6.58-18.72-31.14-30.32l-32.09.68c-24.58,8.33-30.87,13.87-33,32.37L475.73,398H577.07Z"/><polygon class="cls-9" points="513.25 332.73 511.08 340.89 526.25 353.12 525.76 334.09 513.25 332.73"/><polygon class="cls-7" points="538.49 333 540.66 341.16 525.49 353.39 525.97 334.36 538.49 333"/><path class="cls-7" d="M515,340.13c4.61,3.61,7.43,6.9,12,6.41s10.66-5.29,12.17-8.55a59.07,59.07,0,0,0,5.92,4.6l-8.06,12.5-11.59,33.12-10.78-33.78-8-11.37Z"/><polygon class="cls-7" points="512 337 506.46 343.34 508.8 356.41 520.8 344.07 512 337"/><polygon class="cls-7" points="540.7 336.84 546.78 344.32 544.45 357.39 532.61 344.57 540.7 336.84"/><g class="cls-29"><polygon class="cls-3" points="530.03 356.13 526.71 356.13 526.71 347.41 533.31 347.41 533.36 351.17 530.03 356.13"/><polygon class="cls-3" points="530.45 354.8 536.26 409.84 527.07 417.06 526.87 416.86 526.53 354.85 530.45 354.8"/><polygon class="cls-12" points="524.15 356.13 526.94 356.13 526.94 347.41 520.17 347.41 520.22 351.17 524.15 356.13"/><polygon class="cls-12" points="523.69 354.8 517.87 409.84 527.07 417.06 526.94 354.8 523.69 354.8"/><polygon class="cls-12" points="530.58 356.05 523.61 356.05 523.61 355.41 530.51 355.41 530.58 356.05"/></g><polygon class="cls-30" points="539.59 334.43 508.8 365.13 506 343.41 512.08 336.84 514.88 328.45 539.59 334.43"/><path class="cls-7" d="M511.6,332.89a27.58,27.58,0,0,0,1.91,2.31.11.11,0,0,1,0-.05A26.55,26.55,0,0,1,511.6,332.89Z"/><path class="cls-9" d="M550.41,312c0-2.76-.79-3.87-2.15-4.32.32-5.64,1.13-11.61-.93-15.75-3.93-7.89-14.78-12.74-22.19-12.74-7.11,0-16.17,4.17-20.14,11.51-2.45,4.53-1.21,10.49-.9,16.59-1.5.4-2.39,1.48-2.39,4.4,0,4.34,2,11.2,5,12.17.39,1.06.82,2.08,1.29,3.07l.1.17a36.46,36.46,0,0,0,3.5,5.75,26.55,26.55,0,0,0,1.92,2.26.11.11,0,0,0,0,.05c3.68,4,8,6.34,12.75,6.34,7.17,0,13.59-5.42,17.94-14a10.27,10.27,0,0,1,1.14-1.72c.25-.64.5-1.27.71-1.93C548.74,322.25,550.41,316.07,550.41,312Z"/><path class="cls-7" d="M544.2,327.56a10.27,10.27,0,0,1,1.14-1.72c.25-.63.5-1.27.71-1.93,2.69-1.66,4.36-7.84,4.36-11.86,0-2.76-.79-3.88-2.15-4.33.32-5.64,1.13-11.61-.93-15.74-3.88-7.8-14.52-12.62-21.93-12.74v62.25c.29,0,.57.05.86.05C533.43,341.54,539.85,336.12,544.2,327.56Z"/><path class="cls-8" d="M539.33,289.47c.45,3.62-6.35,3.46-10.88,2.71s-7.2.15-11.43,1.36-8.47,5.65-9.07,7.86c-.37,1.32-.05,7.7-.05,7.7l-3.8-1.77s-1.74-9.33-.38-15.3c1.31-5.74,4.64-10.37,15.36-12.69,9.72-2.1,16.54-.83,16.85,1.58.75.16,1.36-.45,2.27-.45,2.26,0,6.57,2.64,8.54,5.82s3.85,9,2.48,18.82c-.3,2.56-.82,3.24-.82,3.24l-3.17,1.81s1.41-12.39-3.73-16C539.87,293,539.33,289.47,539.33,289.47Z"/><path class="cls-10" d="M541.45,294c5.14,3.63,3.74,16,3.74,16l3.16-1.8s.53-.69.83-3.25c1.36-9.83-.52-15.64-2.49-18.82s-6.27-5.81-8.54-5.81a10.21,10.21,0,0,0-2,.44c1,3.21,3.21,7.79,3.19,8.55C539.29,289.33,539.83,292.86,541.45,294Z"/><path class="cls-10" d="M539.29,289.33c0,.22,0,.53-.06.84A2.55,2.55,0,0,0,539.29,289.33Z"/><path class="cls-8" d="M559.45,309a18.74,18.74,0,0,0-1.53-3.49,32.86,32.86,0,0,0,.4-5,31.56,31.56,0,1,0-63.12,0,32.44,32.44,0,0,0,.43,5.15,18.05,18.05,0,0,0-1.5,3.43c-.74,2-.27,11.68.64,13,1.68,2.42,6.25,4.32,9.13,4.67a1.73,1.73,0,0,0,1.43.57,1.71,1.71,0,0,0,1.57-1.83l-1.58-17.4a1.71,1.71,0,0,0-1.88-1.52,1.79,1.79,0,0,0-1.09.53l-.47-.05a4.37,4.37,0,0,1-2.92-2.22,28,28,0,0,1-.35-4.32c0-15.77,12.6-26.61,28.15-26.61s28.14,10.84,28.14,26.61a28.37,28.37,0,0,1-.34,4.35,4.4,4.4,0,0,1-2.86,2.1l-.48,0a1.72,1.72,0,0,0-3,1l-1.58,17.41a1.71,1.71,0,0,0,1.57,1.83,1.73,1.73,0,0,0,1.43-.57c2.88-.35,7.45-2.25,9.12-4.67C559.71,320.7,560.19,311,559.45,309Z"/><path class="cls-8" d="M557.89,315.43c-1.89-1.47-2.52,0-2.52,0-1,1.8-6.82,9.94-19.45,13.56a6.18,6.18,0,0,0-4.52-1.63c-2.84,0-5.13,1.36-5.13,3s2.29,3,5.13,3,5.1-1.35,5.13-3C540.92,329.12,551.94,325,557.89,315.43Z"/><circle class="cls-9" cx="608.73" cy="278.57" r="39.45"/><path class="cls-8" d="M605.56,319.4c-4-1-8.07-1.64-11.89-3-17.45-6.45-28.56-26-25.29-44.31,2.89-16.19,12.2-27.11,27.64-32.64,8.06-2.89,16.32-2.81,24.75-.4l-.79,2.6-6.08-1.2a73.87,73.87,0,0,1,12.35,16.5,16.78,16.78,0,0,0,9-6.41L633.11,249l1.9-2.29a35.72,35.72,0,0,1,9.14,10.61c8,14.46,8,29-.73,43-6.71,10.79-16.75,16.87-29.35,18.69-.55.08-1.1.23-1.65.35Zm32.1-15.93a37.79,37.79,0,0,0,9.42-23.65l-2.64-.23V277l2.65-.16a37.88,37.88,0,0,0-9.44-23.63l-9.87,7,.79,2.21-2.52.95L625,261l-14.51,2v13.81L613,277v2.65l-2.53.17v13.83l14.54,2,1-2.29,2.53,1-.77,2.2Zm-48.07-6.64-3.85-17h-15a37.54,37.54,0,0,0,9.4,23.62Zm-18.85-20.09h15l3.86-16.9-9.45-6.68A37.57,37.57,0,0,0,570.74,276.74Zm36.77,16.87c0-4,0-8.14,0-12.29,0-1.29-.38-1.66-1.65-1.64-5.14.07-10.28,0-15.42,0a11.11,11.11,0,0,0-1.32.17,41.64,41.64,0,0,0,3.69,15.78M607.44,263l-14.61-2a41.76,41.76,0,0,0-3.67,15.77h18.28Zm-13.39,35.3A57.63,57.63,0,0,0,607.41,315V296.5m18.9,3.1a62.21,62.21,0,0,1-13,16.68A38.43,38.43,0,0,0,635.22,306C632.93,302.84,629.84,301,626.31,299.6Zm-32.24-41.26,13.3,1.75V241.68A58.3,58.3,0,0,0,594.07,258.34Zm-11.49-7.72c2.27,3.17,5.35,5,8.85,6.4A65,65,0,0,1,604,240.6,37,37,0,0,0,582.58,250.62Zm21.89,65.67a62.68,62.68,0,0,1-13.06-16.67c-3.51,1.45-6.59,3.25-8.81,6.4A38.54,38.54,0,0,0,604.47,316.29Zm6-74.57v18.39l13.28-1.79A57.46,57.46,0,0,0,610.47,241.72Zm0,54.77v18.44a56.9,56.9,0,0,0,13.29-16.6Z"/><path class="cls-8" d="M655.65,281.66c-.47,2.63-.8,5.29-1.42,7.89a45.66,45.66,0,0,1-12.86,22.34L639.44,310c11.25-11.68,15.59-25.42,12.23-41.23A42,42,0,0,0,636,243.83c-2.2.7-4,1.65-5.8,1.78a6.86,6.86,0,0,1-7.09-7,7.17,7.17,0,0,1,7-7c3.9-.05,7.38,3.14,7,7-.19,2.18.79,3.12,2.15,4.3A46,46,0,0,1,655.37,274c0,.49.18,1,.28,1.48Zm-21.27-43a4.39,4.39,0,0,0-4.28-4.24,4.51,4.51,0,0,0-4.21,4.18,4.42,4.42,0,0,0,4.23,4.31A4.35,4.35,0,0,0,634.38,238.64Z"/><path class="cls-8" d="M635.9,313l1.82-1.51,1.84,2.1-1.93,1.6Z"/><path class="cls-31" d="M629.4,289.52a11.73,11.73,0,0,1,0-23.45,11.73,11.73,0,1,1,0,23.45Zm-9-11.74a9.09,9.09,0,1,0,9.17-9.1A9.09,9.09,0,0,0,620.37,277.78Z"/><path class="cls-31" d="M627.15,279c-.45-.36-.94-.68-1.34-1.07a3.91,3.91,0,0,1,1.5-6.45c.47-.2.79-.76,1.26-1a3.37,3.37,0,0,1,1.5-.46,2.11,2.11,0,0,1,1.1.54c.28.22.42.7.71.82,2.6,1,3.31,2.12,3.11,5h-2.28c-.53-2.32-2-3.17-4.41-2.38-.43.14-1,.85-.94,1.2a1.85,1.85,0,0,0,1.12,1.21,9.74,9.74,0,0,0,2.36.08,3.93,3.93,0,0,1,1.35,7.71,2.42,2.42,0,0,0-1.2,1.38H629.1c-.6-.56-1-1.13-1.48-1.34-2.32-1-3.14-2.29-2.88-5l2.44-.25c.12,2.66.29,2.82,3,2.8.21,0,.48.08.62,0,.59-.41,1.13-.88,1.69-1.32-.56-.44-1.07-1.15-1.69-1.27A21.8,21.8,0,0,0,627.15,279Z"/></g><g id="eye"><polygon class="cls-32" points="676.68 551.21 697.88 555.63 698.6 570.24 636.7 605.17 601.05 584.93 672.82 544.71 676.68 551.21"/><circle class="cls-23" cx="664.48" cy="409.94" r="13.87"/><path class="cls-8" d="M664.41,406.71a3.07,3.07,0,1,0,3.19,3A3.07,3.07,0,0,0,664.41,406.71Zm-.35-9.49a12.56,12.56,0,1,0,13,12.1A12.56,12.56,0,0,0,664.06,397.22Zm.71,19a6.45,6.45,0,1,1,6.2-6.68A6.46,6.46,0,0,1,664.77,416.22Zm21.3,0-1,2.69a.89.89,0,0,1-1.07.53l-3.93-1a17.9,17.9,0,0,1-5.87,6.24l1.22,3.75a.87.87,0,0,1-.46,1.1l-2.61,1.23a.89.89,0,0,1-1.13-.36L669,427a17.1,17.1,0,0,1-3.82.56,17.82,17.82,0,0,1-4.15-.33l-1.95,3.67a.88.88,0,0,1-1.11.43l-2.69-1a.86.86,0,0,1-.53-1.06l1-4a17.65,17.65,0,0,1-6.06-5.72l-4.14,1.36a.87.87,0,0,1-1.1-.44l-1.23-2.61a.87.87,0,0,1,.34-1.13l3.8-2.42a19,19,0,0,1-.56-3.81,18.34,18.34,0,0,1,.4-4.47l-4-2.15a.85.85,0,0,1-.43-1.1l1-2.69a.88.88,0,0,1,1.07-.53l4.47,1.11a17.81,17.81,0,0,1,5.6-5.76l-1.52-4.25a.86.86,0,0,1,.41-1.11l2.57-1.31a.89.89,0,0,1,1.15.32l2.67,4a.56.56,0,0,1,0,.08,17.27,17.27,0,0,1,3.62-.51,17.5,17.5,0,0,1,4,.3v0l2.38-4.15a.87.87,0,0,1,1.11-.4l2.67,1.11a.87.87,0,0,1,.49,1.08l-1.21,4.4a18,18,0,0,1,5.66,5.09l4.1-1.34a.87.87,0,0,1,1.1.45l1.23,2.6a.87.87,0,0,1-.35,1.14l-3.54,2.26a18.05,18.05,0,0,1,.47,8.6l3.67,2A.89.89,0,0,1,686.07,416.21Z"/><polygon class="cls-7" points="723.28 500.67 735.89 500.67 735.89 507.81 728.96 510.13 722.97 507.5 723.28 500.67"/><path class="cls-23" d="M717.08,462.93c-2.52,2.21-2.21,9.15-.32,13.56s7.26,18,7.26,18a54.42,54.42,0,0,0,5.91,1.31V457.84C724.59,457.93,719,461.25,717.08,462.93Z"/><path class="cls-7" d="M742.2,462.93c2.52,2.21,2.21,9.15.31,13.56s-7.25,18-7.25,18a54.42,54.42,0,0,1-5.91,1.31V457.84C734.69,457.93,740.28,461.25,742.2,462.93Z"/><path class="cls-28" d="M747.15,471.1c0-8.41-7.87-15.22-17.59-15.22S712,462.69,712,471.1a13.61,13.61,0,0,0,2.34,7.56c2.21,4.07,6.47,13.49,7.63,20.09h15.11c1.38-7.9,8.11-19.85,8.81-21.83h-.06A13.35,13.35,0,0,0,747.15,471.1Zm-5.64,4.65c-.51,1.44-5.44,10.2-6.46,16H724c-.85-4.84-4-11.73-5.59-14.72a10,10,0,0,1-1.71-5.53c0-6.16,5.76-11.14,12.87-11.14s12.88,5,12.88,11.14a9.79,9.79,0,0,1-1,4.26Z"/><rect class="cls-28" x="727.06" y="439.69" width="4.99" height="12.99" rx="2" ry="2"/><path class="cls-28" d="M750,459.64a2,2,0,0,1-2.82-.24l-.64-.76a2,2,0,0,1,.25-2.82L753.7,450a2,2,0,0,1,2.82.25l.64.76a2,2,0,0,1-.25,2.82Z"/><path class="cls-28" d="M753.36,478.48a2,2,0,0,1-2-2v-1a2,2,0,0,1,2-2h9a2,2,0,0,1,2,2v1a2,2,0,0,1-2,2Z"/><path class="cls-28" d="M709.32,459.64a2,2,0,0,0,2.81-.24l.64-.76a2,2,0,0,0-.24-2.82L705.64,450a2,2,0,0,0-2.81.25l-.65.76a2,2,0,0,0,.25,2.82Z"/><rect class="cls-28" x="694.99" y="473.49" width="12.99" height="4.99" rx="2" ry="2"/><path class="cls-28" d="M722.23,500.21s0,6.74,0,7.49,4.38,4.87,5.32,5.62a1.06,1.06,0,0,0,.17.25,6.08,6.08,0,0,0,1.94.2,6,6,0,0,0,1.93-.2.78.78,0,0,0,.18-.25c.93-.75,5.32-4.89,5.32-5.62s0-7.49,0-7.49Zm12.95,7.1a.3.3,0,0,1-.29.31h-10.4a.3.3,0,0,1-.29-.31v-.25a.31.31,0,0,1,.29-.32h10.4a.31.31,0,0,1,.29.32Zm0-2.29a.31.31,0,0,1-.29.32h-10.4a.31.31,0,0,1-.29-.32v-.25a.3.3,0,0,1,.29-.31h10.4a.3.3,0,0,1,.29.31Zm0-2.27a.3.3,0,0,1-.29.32h-10.4a.3.3,0,0,1-.29-.32v-.24a.3.3,0,0,1,.29-.32h10.4a.3.3,0,0,1,.29.32Z"/><rect class="cls-23" x="593.44" y="549.4" width="6.36" height="11.96" transform="translate(-216.76 608.48) rotate(-46.69)"/><rect class="cls-7" x="596.06" y="548.26" width="3.24" height="11.96" transform="translate(-215.6 608.79) rotate(-46.68)"/><rect class="cls-8" x="607.76" y="551.29" width="9.35" height="38" transform="translate(-222.63 624.74) rotate(-46.69)"/><rect class="cls-23" x="612.49" y="549.25" width="3.74" height="38" transform="translate(-220.56 625.26) rotate(-46.67)"/><path class="cls-23" d="M582.26,517.64a21,21,0,1,0,16,25.08A21,21,0,0,0,582.26,517.64Z"/><path class="cls-8" d="M581.68,520.23a18.37,18.37,0,1,0,14,21.92A18.37,18.37,0,0,0,581.68,520.23Z"/><path class="cls-7" d="M581.18,522.49a16.06,16.06,0,1,0,12.2,19.15A16.05,16.05,0,0,0,581.18,522.49Z"/><polyline class="cls-33" points="648.55 478.79 648.55 452.06 656.81 446.92 656.81 437.95"/><polyline class="cls-33" points="640.85 478.79 640.85 451.19 632.6 446.05 632.6 437.95"/><polyline class="cls-33" points="656 479.78 656 458.93 667.74 451.63 667.74 437.95"/><polyline class="cls-33" points="633.41 479.78 633.41 458.93 621.67 451.63 621.67 437.95"/><polyline class="cls-33" points="664.95 488.79 664.95 464.84 679.8 454.49 679.8 437.95"/><polyline class="cls-33" points="624.46 488.79 624.46 464.84 609.61 454.49 609.61 437.95"/><path class="cls-16" d="M609.61,433.42a4,4,0,1,1-4,4A4,4,0,0,1,609.61,433.42Z"/><path class="cls-16" d="M679.8,433.42a4,4,0,1,1-4,4A4,4,0,0,1,679.8,433.42Z"/><path class="cls-16" d="M667.53,433.42a4,4,0,1,1-4,4A4,4,0,0,1,667.53,433.42Z"/><path class="cls-16" d="M656.61,433.42a4,4,0,1,1-4,4A4,4,0,0,1,656.61,433.42Z"/><path class="cls-16" d="M632.8,433.42a4,4,0,1,1-4,4A4,4,0,0,1,632.8,433.42Z"/><path class="cls-16" d="M621.87,433.42a4,4,0,1,1-4,4A4,4,0,0,1,621.87,433.42Z"/><polyline class="cls-33" points="640.85 526.58 640.85 552.68 632.6 557.82 632.6 566.8"/><polyline class="cls-33" points="648.55 526.58 648.55 553.55 656.81 558.69 656.81 566.8"/><polyline class="cls-33" points="633.41 524.25 633.41 545.81 621.67 553.12 621.67 566.8"/><polyline class="cls-33" points="656 524.25 656 545.81 667.74 553.12 667.74 566.8"/><polyline class="cls-33" points="624.46 515.96 624.46 539.91 609.61 550.26 609.61 566.8"/><polyline class="cls-33" points="664.95 515.96 664.95 539.91 679.8 550.26 679.8 566.8"/><path class="cls-16" d="M679.8,571.32a4,4,0,1,1,4-4A4,4,0,0,1,679.8,571.32Z"/><path class="cls-16" d="M609.61,571.32a4,4,0,1,1,4-4A4,4,0,0,1,609.61,571.32Z"/><path class="cls-16" d="M621.87,571.32a4,4,0,1,1,4-4A4,4,0,0,1,621.87,571.32Z"/><path class="cls-16" d="M632.8,571.32a4,4,0,1,1,4-4A4,4,0,0,1,632.8,571.32Z"/><path class="cls-16" d="M656.61,571.32a4,4,0,1,1,4-4A4,4,0,0,1,656.61,571.32Z"/><path class="cls-16" d="M667.53,571.32a4,4,0,1,1,4-4A4,4,0,0,1,667.53,571.32Z"/><path class="cls-7" d="M700.77,502.37s-25.1,33.18-56.07,33.18-56.06-33.18-56.06-33.18,25.1-33.18,56.06-33.18S700.77,502.37,700.77,502.37Z"/><circle class="cls-15" cx="644.7" cy="502.37" r="26.29" transform="translate(6.68 1013.2) rotate(-76.61)"/><circle class="cls-16" cx="644.7" cy="502.37" r="22.4" transform="translate(-166.4 603.02) rotate(-45)"/><path class="cls-15" d="M653.57,502.37a8.87,8.87,0,1,1-8.87-8.86A8.87,8.87,0,0,1,653.57,502.37Z"/><g class="cls-34"><g class="cls-35"><polyline class="cls-36" points="637.15 477.02 637.15 486.24 640.73 488.12 640.73 495.8"/><polyline class="cls-36" points="652.26 477.02 652.26 486.24 648.67 488.12 648.67 495.8"/><polyline class="cls-36" points="652.26 527.73 652.26 518.51 648.67 516.63 648.67 508.95"/><polyline class="cls-36" points="637.15 527.73 637.15 518.51 640.73 516.63 640.73 508.95"/><polyline class="cls-36" points="619.35 509.93 628.57 509.93 630.45 506.34 638.13 506.34"/><polyline class="cls-36" points="619.35 494.82 628.57 494.82 630.45 498.4 638.13 498.4"/><polyline class="cls-36" points="670.06 494.82 660.84 494.82 658.96 498.4 651.28 498.4"/><polyline class="cls-36" points="670.06 509.93 660.84 509.93 658.96 506.34 651.28 506.34"/></g></g><path class="cls-7" d="M642.45,494.38a4.08,4.08,0,1,1-4.08-4.08A4.08,4.08,0,0,1,642.45,494.38Z"/><path class="cls-7" d="M684,554.74a3.12,3.12,0,1,0,3.22,3A3.12,3.12,0,0,0,684,554.74Zm-.36-9.61a12.73,12.73,0,1,0,13.2,12.26A12.72,12.72,0,0,0,683.67,545.13Zm.71,19.26a6.54,6.54,0,1,1,6.3-6.78A6.54,6.54,0,0,1,684.38,564.39Zm21.6,0-1.06,2.73a.89.89,0,0,1-1.07.54l-4-1a18.13,18.13,0,0,1-5.94,6.34l1.23,3.8a.87.87,0,0,1-.46,1.11L692,579.13a.89.89,0,0,1-1.15-.36l-2.21-3.5a17.06,17.06,0,0,1-3.88.57,17.28,17.28,0,0,1-4.21-.34l-2,3.72a.89.89,0,0,1-1.12.45l-2.73-1a.89.89,0,0,1-.54-1.08l1-4.06a18,18,0,0,1-6.15-5.79l-4.2,1.37a.87.87,0,0,1-1.11-.45L662.51,566a.88.88,0,0,1,.35-1.15l3.85-2.46a18,18,0,0,1-.56-3.85,18.29,18.29,0,0,1,.4-4.53l-4-2.18a.89.89,0,0,1-.44-1.12l1.05-2.73a.89.89,0,0,1,1.08-.53l4.53,1.12a18.21,18.21,0,0,1,5.68-5.84l-1.54-4.31a.89.89,0,0,1,.42-1.13l2.61-1.32a.89.89,0,0,1,1.16.33l2.71,4a.2.2,0,0,1,0,.08,17.84,17.84,0,0,1,3.68-.52,18.5,18.5,0,0,1,4,.3v0l2.41-4.21a.89.89,0,0,1,1.13-.4l2.7,1.12a.88.88,0,0,1,.51,1.09L693,542.2a18,18,0,0,1,5.74,5.16l4.16-1.36a.88.88,0,0,1,1.11.45l1.26,2.64a.89.89,0,0,1-.36,1.15l-3.6,2.29a17.9,17.9,0,0,1,.79,4.66,18.16,18.16,0,0,1-.31,4.06l3.72,2A.89.89,0,0,1,706,564.37Z"/><path class="cls-23" d="M679.76,540.38l0-.08-2.71-4a.9.9,0,0,0-1.16-.33l-2.61,1.32a.88.88,0,0,0-.42,1.13l1.54,4.31a18,18,0,0,0-5.68,5.84l-4.53-1.13a.9.9,0,0,0-1.08.54L662,550.69a.89.89,0,0,0,.43,1.12l4.06,2.17a18.42,18.42,0,0,0-.41,4.54,18.07,18.07,0,0,0,.57,3.85l-3.86,2.46a.9.9,0,0,0-.35,1.15l1.26,2.64a.87.87,0,0,0,1.11.45l4.19-1.38a18.06,18.06,0,0,0,6.15,5.8l-1,4.06a.88.88,0,0,0,.54,1.07l2.73,1a.88.88,0,0,0,1.12-.44l2-3.72a17.68,17.68,0,0,0,3.44.35v-5.28a12.73,12.73,0,0,1-.36-25.45H684v-5.27h-.56A17.75,17.75,0,0,0,679.76,540.38Z"/><path class="cls-23" d="M677.57,558.09a6.53,6.53,0,0,0,6.42,6.29V561a3.11,3.11,0,0,1,0-6.21h0v-3.42h-.13A6.53,6.53,0,0,0,677.57,558.09Z"/></g><g id="blockchain"><polygon class="cls-37" points="591.25 659.84 532.28 695.98 473.87 609.48 541.15 570.27 591.25 659.84"/><path class="cls-8" d="M589.93,639.47v-.42c-1.89-12.65-5.09-14.52-24.14-23.51l-24.88.52c-19,6.46-23.93,10.76-25.62,25.1l-2.11,19h78.58Z"/><polygon class="cls-9" points="542.28 609.53 540.6 615.85 552.35 625.34 551.98 610.58 542.28 609.53"/><polygon class="cls-7" points="561.84 609.74 563.53 616.07 551.77 625.55 552.14 610.79 561.84 609.74"/><path class="cls-7" d="M543.67,615.26c3.57,2.81,5.76,5.35,9.3,5s8.27-4.09,9.44-6.62a46.28,46.28,0,0,0,4.59,3.56l-6.25,9.69-9,25.68-8.36-26.19-6.19-8.81Z"/><polygon class="cls-7" points="541.31 612.84 537.01 617.75 538.82 627.88 548.13 618.32 541.31 612.84"/><polygon class="cls-7" points="563.55 612.71 568.28 618.52 566.46 628.65 557.28 618.71 563.55 612.71"/><g class="cls-38"><polygon class="cls-3" points="555.28 627.67 552.71 627.67 552.71 620.91 557.83 620.91 557.87 623.82 555.28 627.67"/><polygon class="cls-3" points="555.61 626.64 560.12 669.32 552.99 674.91 552.84 674.75 552.57 626.67 555.61 626.64"/><polygon class="cls-12" points="550.73 627.67 552.89 627.67 552.89 620.91 547.64 620.91 547.68 623.82 550.73 627.67"/><polygon class="cls-12" points="550.37 626.64 545.86 669.32 552.99 674.91 552.89 626.64 550.37 626.64"/><polygon class="cls-12" points="555.71 627.61 550.3 627.61 550.3 627.11 555.66 627.11 555.71 627.61"/></g><polygon class="cls-39" points="562.7 610.85 538.82 634.64 536.65 617.81 541.37 612.71 543.54 606.21 562.7 610.85"/><path class="cls-7" d="M541,609.65a20.48,20.48,0,0,0,1.49,1.79.08.08,0,0,1,0,0A21.49,21.49,0,0,1,541,609.65Z"/><path class="cls-9" d="M571.09,593.49c0-2.14-.62-3-1.67-3.35.25-4.38.88-9-.72-12.21-3.05-6.12-11.46-9.88-17.21-9.88-5.51,0-12.53,3.23-15.61,8.92-1.9,3.51-.94,8.14-.7,12.87-1.16.31-1.85,1.14-1.85,3.41,0,3.36,1.51,8.68,3.87,9.43.31.83.64,1.62,1,2.38,0,.05,0,.09.07.13a30,30,0,0,0,2.71,4.46,21.49,21.49,0,0,0,1.5,1.75.08.08,0,0,0,0,0c2.85,3.11,6.24,4.92,9.88,4.92,5.56,0,10.54-4.2,13.91-10.84a8.29,8.29,0,0,1,.88-1.33c.2-.5.4-1,.56-1.5C569.79,601.4,571.09,596.61,571.09,593.49Z"/><path class="cls-7" d="M566.27,605.52a8.29,8.29,0,0,1,.88-1.33c.2-.49.4-1,.56-1.5,2.08-1.29,3.38-6.08,3.38-9.2,0-2.14-.62-3-1.67-3.35.25-4.38.88-9-.72-12.21-3-6-11.26-9.78-17-9.87v48.26c.22,0,.44,0,.66,0C557.92,616.36,562.9,612.16,566.27,605.52Z"/><path class="cls-8" d="M562.5,576c.35,2.8-4.92,2.68-8.44,2.1s-5.58.12-8.86,1-6.57,4.38-7,6.09a41.46,41.46,0,0,0,0,6l-3-1.37s-1.35-7.24-.29-11.87c1-4.45,3.59-8,11.9-9.83,7.54-1.63,12.83-.65,13.07,1.22.58.12,1-.35,1.76-.35,1.75,0,5.09,2,6.62,4.51s3,7,1.93,14.59a6,6,0,0,1-.64,2.52l-2.46,1.4s1.09-9.6-2.89-12.42C562.92,578.73,562.5,576,562.5,576Z"/><path class="cls-10" d="M564.14,579.51c4,2.81,2.9,12.41,2.9,12.41l2.45-1.4a5.67,5.67,0,0,0,.64-2.51c1.06-7.63-.4-12.13-1.93-14.59s-4.86-4.51-6.62-4.51a7.36,7.36,0,0,0-1.59.35c.75,2.48,2.49,6,2.48,6.62C562.47,575.88,562.88,578.62,564.14,579.51Z"/><path class="cls-10" d="M562.47,575.88c0,.17,0,.41-.05.65A2,2,0,0,0,562.47,575.88Z"/><polygon class="cls-8" points="613.45 603.6 628.99 660.96 601.14 655.65 600.84 626.45 613.45 603.6"/><polygon class="cls-8" points="573.35 606.85 561.09 659.76 589.25 676.56 587.43 613.9 573.35 606.85"/><path class="cls-9" d="M584.93,637.29c-.22,3.62-2.5,11.12-5.9,13.62,3.62,6.35,11.8,13.16,15.43,13.62-.22-13.85,0-27.24,0-27.24Z"/><path class="cls-7" d="M603.77,637.29c.23,3.62,2.5,11.12,5.91,13.62-3.64,6.35-11.82,13.16-15.44,13.62.22-13.85,0-27.24,0-27.24Z"/><path class="cls-9" d="M634.93,673.06v-.45c-2-13.59-5.62-14.05-25.93-25.25l-15.5,10.08-11.22-9.51c-20.09,8.86-25.7,11.55-27.5,26.94l-2.27,17.41h84.38Z"/><polygon class="cls-7" points="605.98 644.67 612.61 649.37 606.07 661.67 596.71 651.41 605.98 644.67"/><path class="cls-13" d="M582.1,647.32c-20.1,8.86-25,10.94-26.82,26.34l-2.77,18.62H594.3V656.91l-.8.53Z"/><path class="cls-7" d="M585.24,647.07c3.84,3,6.19,5.74,10,5.34s8.88-4.4,10.13-7.12a49.44,49.44,0,0,0,4.93,3.83l-7.17,9.12-8.35,12.93-9.31-14.38-7.15-7.28Z"/><polygon class="cls-7" points="582.71 644.47 577.68 649.31 583.06 662.41 593.28 651.6 582.71 644.47"/><polygon class="cls-40" points="604.42 638.49 583.54 662.9 577.44 649.49 583.22 643.79 585.1 637.35 604.42 638.49"/><path class="cls-9" d="M577.88,601.7c-2,3.78-1,8.76-.74,13.85-1.26.34-2,1.24-2,3.68,0,3.62,1.63,9.34,4.17,10.15.32.89.69,1.74,1.08,2.57,0,0,.05.1.08.14a31.88,31.88,0,0,0,2.92,4.8q.78,1,1.59,1.92c2.82,3.07,6.1,4.93,9.64,5.24V592.1C588.69,592.13,581.19,595.6,577.88,601.7Z"/><path class="cls-7" d="M594.44,592.1v51.95a15,15,0,0,0,9.63-5.24q.82-.9,1.59-1.92a31.08,31.08,0,0,0,2.92-4.8.64.64,0,0,0,.08-.14c.39-.83.76-1.68,1.08-2.57,2.55-.81,4.17-6.53,4.17-10.15,0-2.44-.74-3.34-2-3.68.26-5.09,1.3-10.07-.74-13.85C607.87,595.6,600.36,592.13,594.44,592.1Z"/><path class="cls-8" d="M594.42,591.56c-4.08-1.36-13,1.07-17,6.14-5.9,7.49-5.9,20.4-5.9,20.4l7.49-1s2.19-9.23,10.36-12.41C595.55,602.27,594.42,591.56,594.42,591.56Z"/><path class="cls-10" d="M586.23,599.51c1.37,6.81,14.66,6.22,19.2,8.49s4.47,8.85,4.47,8.85l3.86-1.13s3.88-11.19-4.52-18.66c-8.17-7.27-18-6.17-21.68-5.26S586.23,599.51,586.23,599.51Z"/><rect class="cls-16" x="546.88" y="721.31" width="7.68" height="40.03"/><rect class="cls-16" x="507.94" y="767.88" width="85.55" height="2.27"/><path class="cls-7" d="M591,730.72c0,4-18,7.27-40.25,7.27s-40.25-3.26-40.25-7.27,18-7.27,40.25-7.27S591,726.71,591,730.72Z"/><rect class="cls-7" x="510.47" y="710.75" width="80.5" height="19.86"/><path class="cls-15" d="M591,710.51c0,4-18,7.27-40.25,7.27s-40.25-3.25-40.25-7.27,18-7.26,40.25-7.26S591,706.5,591,710.51Z"/><path class="cls-16" d="M584.9,725.72c0,3-2.14,5.66-4.78,6s-4.78-1.77-4.78-4.74,2.14-5.66,4.78-6S584.9,722.75,584.9,725.72Z"/><path class="cls-15" d="M582.58,726a3.08,3.08,0,0,1-2.46,3.09,2.25,2.25,0,0,1-2.46-2.44,3.1,3.1,0,0,1,2.46-3.1A2.25,2.25,0,0,1,582.58,726Z"/><path class="cls-15" d="M560.44,729.22a1.57,1.57,0,1,1-1.57-1.57A1.57,1.57,0,0,1,560.44,729.22Z"/><path class="cls-15" d="M552.28,729.22a1.57,1.57,0,1,1-1.56-1.57A1.56,1.56,0,0,1,552.28,729.22Z"/><path class="cls-15" d="M544.12,729.22a1.57,1.57,0,1,1-1.56-1.57A1.56,1.56,0,0,1,544.12,729.22Z"/><path class="cls-7" d="M591,703.93c0,4-18,7.27-40.25,7.27s-40.25-3.26-40.25-7.27,18-7.26,40.25-7.26S591,699.92,591,703.93Z"/><rect class="cls-7" x="510.47" y="683.96" width="80.5" height="19.86"/><path class="cls-15" d="M591,683.72c0,4-18,7.27-40.25,7.27s-40.25-3.25-40.25-7.27,18-7.26,40.25-7.26S591,679.71,591,683.72Z"/><path class="cls-16" d="M584.9,698.93c0,3-2.14,5.66-4.78,6s-4.78-1.77-4.78-4.74,2.14-5.66,4.78-6S584.9,696,584.9,698.93Z"/><path class="cls-15" d="M582.58,699.24a3.09,3.09,0,0,1-2.46,3.1,2.25,2.25,0,0,1-2.46-2.45,3.08,3.08,0,0,1,2.46-3.09A2.25,2.25,0,0,1,582.58,699.24Z"/><path class="cls-15" d="M560.44,702.43a1.57,1.57,0,1,1-1.57-1.57A1.57,1.57,0,0,1,560.44,702.43Z"/><path class="cls-15" d="M552.28,702.43a1.57,1.57,0,1,1-1.56-1.57A1.56,1.56,0,0,1,552.28,702.43Z"/><path class="cls-15" d="M544.12,702.43a1.57,1.57,0,1,1-1.56-1.57A1.56,1.56,0,0,1,544.12,702.43Z"/><path class="cls-7" d="M591,677.14c0,4-18,7.27-40.25,7.27s-40.25-3.25-40.25-7.27,18-7.26,40.25-7.26S591,673.13,591,677.14Z"/><rect class="cls-7" x="510.47" y="657.17" width="80.5" height="19.86"/><ellipse class="cls-15" cx="550.72" cy="656.94" rx="40.25" ry="7.27"/><path class="cls-16" d="M584.9,672.14c0,3-2.14,5.66-4.78,6s-4.78-1.77-4.78-4.74,2.14-5.66,4.78-6S584.9,669.18,584.9,672.14Z"/><path class="cls-15" d="M582.58,672.45a3.09,3.09,0,0,1-2.46,3.1,2.25,2.25,0,0,1-2.46-2.45,3.08,3.08,0,0,1,2.46-3.09A2.25,2.25,0,0,1,582.58,672.45Z"/><path class="cls-15" d="M560.44,675.64a1.57,1.57,0,1,1-1.57-1.56A1.57,1.57,0,0,1,560.44,675.64Z"/><path class="cls-15" d="M552.28,675.64a1.57,1.57,0,1,1-1.56-1.56A1.56,1.56,0,0,1,552.28,675.64Z"/><path class="cls-15" d="M544.12,675.64a1.57,1.57,0,1,1-1.56-1.56A1.56,1.56,0,0,1,544.12,675.64Z"/><path class="cls-15" d="M561.2,763.5a2.76,2.76,0,0,1-2.75,2.76H543a2.76,2.76,0,0,1-2.75-2.76v-4.82a2.76,2.76,0,0,1,2.75-2.76h15.47a2.76,2.76,0,0,1,2.75,2.76Z"/><path class="cls-15" d="M567.3,772.4a4.53,4.53,0,0,1-4.53,4.54h-24.1a4.54,4.54,0,0,1-4.54-4.54v-6.76a4.54,4.54,0,0,1,4.54-4.55h24.1a4.54,4.54,0,0,1,4.53,4.55Z"/><path class="cls-15" d="M512.66,769a4,4,0,1,1-4-4A4,4,0,0,1,512.66,769Z"/><path class="cls-15" d="M596.71,769a4,4,0,1,1-4-4A4,4,0,0,1,596.71,769Z"/><polygon class="cls-41" points="521.59 651.3 465.2 686.1 433.07 637.1 491.64 601.78 521.59 651.3"/><path class="cls-7" d="M493.8,601.12h25.48a2.9,2.9,0,0,1,2.9,2.9v45.31a2.89,2.89,0,0,1-2.89,2.89H493.8a2.89,2.89,0,0,1-2.89-2.89V604A2.89,2.89,0,0,1,493.8,601.12Z"/><path class="cls-10" d="M494.63,608.81h23.81a.35.35,0,0,1,.35.35v31.44a.35.35,0,0,1-.35.35H494.63a.36.36,0,0,1-.36-.36V609.17A.35.35,0,0,1,494.63,608.81Z"/><path class="cls-8" d="M504.65,646.53a1.89,1.89,0,1,0,1.89-1.89A1.89,1.89,0,0,0,504.65,646.53Z"/><path class="cls-42" d="M505.37,646.53a1.17,1.17,0,0,1,1.17-1.17h0a1.17,1.17,0,0,1,1.17,1.17h0a1.18,1.18,0,0,1-1.17,1.17h0a1.17,1.17,0,0,1-1.17-1.17Zm1.17.9a.89.89,0,0,0,.89-.9h0a.89.89,0,0,0-.89-.9h0a.9.9,0,0,0-.9.9h0a.9.9,0,0,0,.9.9Z"/><path class="cls-8" d="M502.92,604.55h7.23a.35.35,0,0,1,.35.35v.36a.35.35,0,0,1-.35.35h-7.23a.36.36,0,0,1-.36-.36v-.36A.35.35,0,0,1,502.92,604.55Z"/></g><polygon class="cls-16" points="359.2 311.34 348.64 311.34 345.82 311.34 335.26 311.34 329.62 330.7 345.82 330.7 348.64 330.7 364.84 330.7 359.2 311.34"/><path class="cls-7" d="M277.42,294v18a2.58,2.58,0,0,0,2.57,2.58H414.46A2.59,2.59,0,0,0,417,312V294Z"/><path class="cls-16" d="M414.46,222H280a2.57,2.57,0,0,0-2.57,2.57V294H417V224.52A2.58,2.58,0,0,0,414.46,222Z"/><rect class="cls-15" x="283.47" y="227.45" width="127.52" height="66.55"/><path class="cls-7" d="M375.4,331.94a2.64,2.64,0,0,1-2.64,2.64H321.7a2.64,2.64,0,0,1-2.64-2.64h0a2.64,2.64,0,0,1,2.64-2.64h51.06a2.64,2.64,0,0,1,2.64,2.64Z"/><path class="cls-7" d="M300.36,240.07h0l-1.87,1-.28-1.11,2.35-1.25h1.23v10.72h-1.4Z"/><path class="cls-7" d="M312.79,244c0,3.65-1.35,5.66-3.72,5.66-2.1,0-3.52-2-3.55-5.51s1.55-5.57,3.73-5.57S312.79,240.55,312.79,244Zm-5.82.17c0,2.79.86,4.37,2.18,4.37,1.48,0,2.19-1.73,2.19-4.47s-.67-4.37-2.18-4.37C307.9,239.66,307,241.21,307,244.13Z"/><path class="cls-7" d="M321.25,244c0,3.65-1.35,5.66-3.72,5.66-2.1,0-3.52-2-3.55-5.51s1.55-5.57,3.73-5.57S321.25,240.55,321.25,244Zm-5.82.17c0,2.79.86,4.37,2.18,4.37,1.48,0,2.19-1.73,2.19-4.47s-.67-4.37-2.17-4.37C316.36,239.66,315.43,241.21,315.43,244.13Z"/><path class="cls-7" d="M325.74,240.07h0l-1.87,1-.28-1.11,2.35-1.25h1.23v10.72h-1.4Z"/><path class="cls-7" d="M338.18,244c0,3.65-1.36,5.66-3.73,5.66-2.1,0-3.52-2-3.55-5.51s1.55-5.57,3.73-5.57S338.18,240.55,338.18,244Zm-5.83.17c0,2.79.86,4.37,2.18,4.37,1.48,0,2.19-1.73,2.19-4.47s-.67-4.37-2.17-4.37C333.28,239.66,332.35,241.21,332.35,244.13Z"/><path class="cls-7" d="M342.66,240.07h0l-1.87,1-.28-1.11,2.35-1.25h1.23v10.72h-1.4Z"/><path class="cls-7" d="M351.12,240.07h0l-1.87,1-.28-1.11,2.35-1.25h1.23v10.72h-1.4Z"/><path class="cls-7" d="M359.58,240.07h0l-1.87,1L357.4,240l2.35-1.25H361v10.72h-1.4Z"/><path class="cls-7" d="M372,244c0,3.65-1.36,5.66-3.73,5.66-2.1,0-3.51-2-3.55-5.51s1.55-5.57,3.73-5.57S372,240.55,372,244Zm-5.83.17c0,2.79.86,4.37,2.18,4.37,1.48,0,2.19-1.73,2.19-4.47s-.67-4.37-2.17-4.37C367.12,239.66,366.19,241.21,366.19,244.13Z"/><path class="cls-7" d="M376.5,240.07h0l-1.87,1-.28-1.11,2.35-1.25h1.23v10.72h-1.4Z"/><path class="cls-7" d="M385,240.07h0l-1.87,1-.28-1.11,2.34-1.25h1.24v10.72H385Z"/><path class="cls-7" d="M397.4,244c0,3.65-1.36,5.66-3.73,5.66-2.1,0-3.52-2-3.55-5.51s1.55-5.57,3.73-5.57S397.4,240.55,397.4,244Zm-5.83.17c0,2.79.86,4.37,2.18,4.37,1.48,0,2.19-1.73,2.19-4.47s-.67-4.37-2.17-4.37C392.5,239.66,391.57,241.21,391.57,244.13Z"/><path class="cls-7" d="M300.36,256.79h0l-1.87,1-.28-1.11,2.35-1.25h1.23v10.72h-1.4Z"/><path class="cls-7" d="M308.82,256.79h0l-1.87,1-.28-1.11,2.34-1.25h1.24v10.72h-1.4Z"/><path class="cls-7" d="M321.25,260.68c0,3.65-1.35,5.66-3.72,5.66-2.1,0-3.52-2-3.55-5.51s1.55-5.57,3.73-5.57S321.25,257.27,321.25,260.68Zm-5.82.17c0,2.79.86,4.37,2.18,4.37,1.48,0,2.19-1.73,2.19-4.47s-.67-4.37-2.17-4.37C316.36,256.38,315.43,257.93,315.43,260.85Z"/><path class="cls-7" d="M325.74,256.79h0l-1.87,1-.28-1.11,2.35-1.25h1.23v10.72h-1.4Z"/><path class="cls-7" d="M338.18,260.68c0,3.65-1.36,5.66-3.73,5.66-2.1,0-3.52-2-3.55-5.51s1.55-5.57,3.73-5.57S338.18,257.27,338.18,260.68Zm-5.83.17c0,2.79.86,4.37,2.18,4.37,1.48,0,2.19-1.73,2.19-4.47s-.67-4.37-2.17-4.37C333.28,256.38,332.35,257.93,332.35,260.85Z"/><path class="cls-7" d="M342.66,256.79h0l-1.87,1-.28-1.11,2.35-1.25h1.23v10.72h-1.4Z"/><path class="cls-7" d="M355.1,260.68c0,3.65-1.36,5.66-3.73,5.66-2.1,0-3.51-2-3.55-5.51s1.55-5.57,3.73-5.57S355.1,257.27,355.1,260.68Zm-5.83.17c0,2.79.86,4.37,2.18,4.37,1.48,0,2.19-1.73,2.19-4.47s-.67-4.37-2.17-4.37C350.2,256.38,349.27,257.93,349.27,260.85Z"/><path class="cls-7" d="M359.58,256.79h0l-1.87,1-.28-1.11,2.35-1.25H361v10.72h-1.4Z"/><path class="cls-7" d="M372,260.68c0,3.65-1.36,5.66-3.73,5.66-2.1,0-3.51-2-3.55-5.51s1.55-5.57,3.73-5.57S372,257.27,372,260.68Zm-5.83.17c0,2.79.86,4.37,2.18,4.37,1.48,0,2.19-1.73,2.19-4.47s-.67-4.37-2.17-4.37C367.12,256.38,366.19,257.93,366.19,260.85Z"/><path class="cls-7" d="M376.5,256.79h0l-1.87,1-.28-1.11,2.35-1.25h1.23v10.72h-1.4Z"/><path class="cls-7" d="M388.93,260.68c0,3.65-1.35,5.66-3.72,5.66-2.1,0-3.52-2-3.55-5.51s1.55-5.57,3.73-5.57S388.93,257.27,388.93,260.68Zm-5.82.17c0,2.79.86,4.37,2.18,4.37,1.48,0,2.19-1.73,2.19-4.47s-.67-4.37-2.18-4.37C384,256.38,383.11,257.93,383.11,260.85Z"/><path class="cls-7" d="M397.4,260.68c0,3.65-1.36,5.66-3.73,5.66-2.1,0-3.52-2-3.55-5.51s1.55-5.57,3.73-5.57S397.4,257.27,397.4,260.68Zm-5.83.17c0,2.79.86,4.37,2.18,4.37,1.48,0,2.19-1.73,2.19-4.47s-.67-4.37-2.17-4.37C392.5,256.38,391.57,257.93,391.57,260.85Z"/><path class="cls-7" d="M304.34,277.4c0,3.65-1.36,5.66-3.73,5.66-2.1,0-3.51-2-3.55-5.51s1.55-5.57,3.73-5.57S304.34,274,304.34,277.4Zm-5.83.17c0,2.79.86,4.37,2.18,4.37,1.48,0,2.19-1.73,2.19-4.47s-.67-4.37-2.17-4.37C299.44,273.1,298.51,274.65,298.51,277.57Z"/><path class="cls-7" d="M308.82,273.51h0l-1.87,1-.28-1.11,2.34-1.25h1.24v10.72h-1.4Z"/><path class="cls-7" d="M317.28,273.51h0l-1.87,1-.28-1.11,2.34-1.25h1.24v10.72h-1.4Z"/><path class="cls-7" d="M325.74,273.51h0l-1.87,1-.28-1.11,2.35-1.25h1.23v10.72h-1.4Z"/><path class="cls-7" d="M334.2,273.51h0l-1.87,1-.28-1.11,2.35-1.25h1.23v10.72h-1.4Z"/><path class="cls-7" d="M346.64,277.4c0,3.65-1.36,5.66-3.73,5.66-2.1,0-3.51-2-3.55-5.51s1.55-5.57,3.73-5.57S346.64,274,346.64,277.4Zm-5.83.17c0,2.79.86,4.37,2.18,4.37,1.48,0,2.19-1.73,2.19-4.47s-.67-4.37-2.17-4.37C341.74,273.1,340.81,274.65,340.81,277.57Z"/><path class="cls-7" d="M355.1,277.4c0,3.65-1.36,5.66-3.73,5.66-2.1,0-3.51-2-3.55-5.51s1.55-5.57,3.73-5.57S355.1,274,355.1,277.4Zm-5.83.17c0,2.79.86,4.37,2.18,4.37,1.48,0,2.19-1.73,2.19-4.47s-.67-4.37-2.17-4.37C350.2,273.1,349.27,274.65,349.27,277.57Z"/><path class="cls-7" d="M363.56,277.4c0,3.65-1.36,5.66-3.73,5.66-2.1,0-3.51-2-3.55-5.51S357.83,272,360,272,363.56,274,363.56,277.4Zm-5.83.17c0,2.79.86,4.37,2.18,4.37,1.48,0,2.19-1.73,2.19-4.47s-.67-4.37-2.17-4.37C358.66,273.1,357.73,274.65,357.73,277.57Z"/><path class="cls-7" d="M372,277.4c0,3.65-1.36,5.66-3.73,5.66-2.1,0-3.51-2-3.55-5.51s1.55-5.57,3.73-5.57S372,274,372,277.4Zm-5.83.17c0,2.79.86,4.37,2.18,4.37,1.48,0,2.19-1.73,2.19-4.47s-.67-4.37-2.17-4.37C367.12,273.1,366.19,274.65,366.19,277.57Z"/><path class="cls-7" d="M376.5,273.51h0l-1.87,1-.28-1.11,2.35-1.25h1.23v10.72h-1.4Z"/><path class="cls-7" d="M388.93,277.4c0,3.65-1.35,5.66-3.72,5.66-2.1,0-3.52-2-3.55-5.51s1.55-5.57,3.73-5.57S388.93,274,388.93,277.4Zm-5.82.17c0,2.79.86,4.37,2.18,4.37,1.48,0,2.19-1.73,2.19-4.47s-.67-4.37-2.18-4.37C384,273.1,383.11,274.65,383.11,277.57Z"/><path class="cls-7" d="M393.42,273.51h0l-1.87,1-.28-1.11,2.35-1.25h1.23v10.72h-1.4Z"/><path class="cls-15" d="M350.91,305.19a3.69,3.69,0,1,1-3.68-3.69A3.68,3.68,0,0,1,350.91,305.19Z"/><polygon class="cls-43" points="287.13 309.36 312.73 291.12 340.98 306.12 340.93 339.06 373.31 362.14 377.81 395.31 296.86 439.23 230.59 401.88 230.91 316.55 267.79 294.67 287.13 309.36"/><polygon class="cls-10" points="294.43 302.04 305.43 348.6 282.94 344.32 282.69 320.74 294.43 302.04"/><polygon class="cls-8" points="260.94 305.45 251.41 347.99 274.14 361.56 272.68 310.96 260.94 305.45"/><path class="cls-28" d="M311.29,354.1v-.37c-1.65-11-8.37-9.54-24.93-17.35l-15.28.24c-15.15,6.73-24.44,9.17-24.69,18.95l-1.83,16.49h68.32Z"/><path class="cls-44" d="M246.51,355.64l-1.83,16.49h33.67V336.58l-7.15.11C256,343.41,246.76,345.86,246.51,355.64Z"/><path class="cls-9" d="M270.65,329.84c-.17,2.93-2,9-4.76,11,2.93,5.13,9.53,10.63,12.47,11-.19-11.18,0-22,0-22Z"/><path class="cls-7" d="M285.88,329.84c.18,2.93,2,9,4.76,11-2.94,5.13-9.54,10.63-12.47,11,.19-11.18,0-22,0-22Z"/><polygon class="cls-45" points="286.67 330.81 265.62 357.75 258.14 351.24 272.93 327.52 286.67 330.81"/><path class="cls-9" d="M265,301.1c-1.65,3-.81,7.08-.6,11.19-1,.27-1.61,1-1.61,3,0,2.92,1.31,7.54,3.36,8.2.26.71.56,1.4.87,2.07l.07.11a25.15,25.15,0,0,0,2.36,3.88,19.9,19.9,0,0,0,1.28,1.55,12.11,12.11,0,0,0,7.78,4.23V293.35C273.7,293.38,267.64,296.18,265,301.1Z"/><path class="cls-7" d="M278.34,293.35V335.3a12.06,12.06,0,0,0,7.77-4.23,20,20,0,0,0,1.29-1.55,26,26,0,0,0,2.36-3.88l.06-.11q.48-1,.87-2.07c2.06-.66,3.37-5.28,3.37-8.2,0-2-.6-2.7-1.61-3,.21-4.11,1-8.14-.6-11.19C289.18,296.18,283.12,293.38,278.34,293.35Z"/><path class="cls-8" d="M278.36,292.44c-3.3-1.1-10.71.12-13.94,4.22-4.76,6-4.58,17.69-4.58,17.69l6.05-.83s1.77-7.45,8.37-10C279.24,301.57,278.36,292.44,278.36,292.44Z"/><path class="cls-10" d="M271.57,298.13c1.11,5.49,12,6.23,15.65,8.06s3.6,7.15,3.6,7.15l3.12-.92s3.67-10.65-3.12-16.68c-6.6-5.87-15.1-4-18-3.24S271.57,298.13,271.57,298.13Z"/><polygon class="cls-46" points="319.45 383.49 271.23 403.75 235.54 385.94 300.39 348.45 319.45 383.49"/><path class="cls-8" d="M376.07,370.13v-.52c-2.32-15.5-6.25-17.8-29.59-28.81l-30.5.64c-23.35,7.92-29.33,13.18-31.4,30.76L282,395.46h96.31Z"/><polygon class="cls-9" points="317.66 333.43 315.6 341.18 330.01 352.81 329.55 334.72 317.66 333.43"/><polygon class="cls-7" points="341.64 333.69 343.7 341.44 329.29 353.06 329.75 334.98 341.64 333.69"/><path class="cls-7" d="M316.46,337.05c1.43,1.81,9,7.64,13.3,7.18s11.55-4.34,13-7.44c1.19,1.29,5.69,4.78,5.69,4.78l-19.13,44.59-17.83-42.91Z"/><path class="cls-7" d="M316.09,333.58a25.09,25.09,0,0,0,1.81,2.19.1.1,0,0,0,0,0A24.23,24.23,0,0,1,316.09,333.58Z"/><path class="cls-9" d="M353,313.77c0-2.62-.75-3.68-2.05-4.11.31-5.36,1.09-11-.88-15-3.73-7.5-14.05-12.11-21.09-12.11-6.75,0-15.36,4-19.14,10.93-2.32,4.31-1.14,10-.85,15.78-1.43.37-2.27,1.4-2.27,4.18,0,4.12,1.85,10.63,4.75,11.56.37,1,.78,2,1.23,2.92,0,.06.07.11.09.16a35.7,35.7,0,0,0,3.33,5.46,24.23,24.23,0,0,0,1.82,2.15.1.1,0,0,1,0,0c3.51,3.82,7.66,6,12.12,6,6.82,0,12.92-5.15,17.05-13.29a10,10,0,0,1,1.08-1.63c.24-.61.48-1.21.68-1.83C351.38,323.47,353,317.59,353,313.77Z"/><path class="cls-7" d="M347.07,328.51a10,10,0,0,1,1.08-1.63c.24-.6.48-1.21.68-1.83,2.55-1.58,4.14-7.46,4.14-11.28,0-2.62-.75-3.68-2.05-4.11.31-5.36,1.09-11-.88-15-3.69-7.41-13.8-12-20.83-12.1v59.15c.27,0,.54.05.81.05C336.84,341.8,342.94,336.65,347.07,328.51Z"/><path class="cls-8" d="M342.44,292.32c.43,3.44-6,3.29-10.34,2.58s-6.84.14-10.86,1.29-8.05,5.36-8.62,7.46c-.35,1.26-.05,7.33-.05,7.33L309,309.3s-1.65-8.88-.36-14.55c1.24-5.45,4.41-9.86,14.59-12.06,9.25-2,15.73-.79,16,1.51.71.15,1.29-.43,2.15-.43,2.16,0,6.25,2.51,8.12,5.53s3.66,8.54,2.36,17.88a7.08,7.08,0,0,1-.78,3.08l-3,1.72s1.33-11.77-3.55-15.22C343,295.68,342.44,292.32,342.44,292.32Z"/><path class="cls-10" d="M344.46,296.63c4.88,3.45,3.55,15.22,3.55,15.22l3-1.71a7.16,7.16,0,0,0,.79-3.09c1.29-9.34-.5-14.86-2.36-17.88s-6-5.53-8.12-5.53a9.91,9.91,0,0,0-1.95.42c.92,3.05,3.05,7.41,3,8.13C342.4,292.19,342.91,295.55,344.46,296.63Z"/><path class="cls-10" d="M342.4,292.19c0,.21,0,.5,0,.79A2,2,0,0,0,342.4,292.19Z"/><g class="cls-47"><polygon class="cls-3" points="332.43 356.14 329.27 356.14 329.27 347.85 335.55 347.85 335.6 351.42 332.43 356.14"/><polygon class="cls-3" points="332.83 354.88 338.36 407.18 329.62 414.04 329.43 413.85 329.11 354.92 332.83 354.88"/><polygon class="cls-12" points="326.85 356.14 329.5 356.14 329.5 347.85 323.06 347.85 323.11 351.42 326.85 356.14"/><polygon class="cls-12" points="326.4 354.88 320.87 407.18 329.62 414.04 329.49 354.88 326.4 354.88"/><polygon class="cls-12" points="332.95 356.06 326.33 356.06 326.33 355.45 332.89 355.45 332.95 356.06"/></g><polygon class="cls-48" points="446.41 403.02 355.45 457.04 295.35 420.19 294.18 373.66 383.24 322.26 446.41 403.02"/><path class="cls-12" d="M429.08,305.52a7.12,7.12,0,0,0-2.64,1.39,4.79,4.79,0,0,0-.94,3.31c0,1.48-.27,11,2.12,17.15.24.48.7.31.94-.06s.82-3.74.48-4-1.05-.54-1.36-1.12.09-10.62.26-11.13.8-.42,1.23-.35A26.52,26.52,0,0,1,429.08,305.52Z"/><path class="cls-8" d="M438,311.49H368.45a1.22,1.22,0,0,0-1.21,1.22v90.2a1.22,1.22,0,0,0,1.21,1.22H438a1.22,1.22,0,0,0,1.21-1.22v-90.2A1.22,1.22,0,0,0,438,311.49Z"/><path class="cls-7" d="M429.93,383.84s-7.79,8.32-7.71,8.32H377.44a.9.9,0,0,1-.9-.91V324.36a.9.9,0,0,1,.9-.9H429a.9.9,0,0,1,.9.9Z"/><path class="cls-13" d="M415.78,309.32H390.69a1.11,1.11,0,0,0,0,2.22h1.95a2.56,2.56,0,0,0-.43,1.42,2.64,2.64,0,0,0,2.63,2.63h16.79a2.63,2.63,0,0,0,2.21-4h1.94a1.11,1.11,0,0,0,0-2.22Z"/><rect class="cls-9" x="384.32" y="333.42" width="37.82" height="1.54"/><rect class="cls-9" x="384.32" y="340.01" width="37.82" height="1.54"/><rect class="cls-9" x="384.32" y="347.07" width="37.82" height="1.53"/><rect class="cls-9" x="384.32" y="353.66" width="37.82" height="1.54"/><rect class="cls-9" x="384.32" y="360.71" width="37.82" height="1.54"/><rect class="cls-9" x="384.32" y="367.31" width="37.82" height="1.53"/><rect class="cls-9" x="384.32" y="374.36" width="37.82" height="1.54"/><path class="cls-13" d="M423.09,383.82H430l-7.76,8.36v-7.46A.9.9,0,0,1,423.09,383.82Z"/><path class="cls-9" d="M433.11,371.54s-.56,1.33-.84,1.33-.87-1.37-.87-1.37Z"/><path class="cls-7" d="M433.11,371.58c.67-1.51,1.23-6.2,1.29-7.1l-4.27,0a43.52,43.52,0,0,0,1.29,7.1Z"/><path class="cls-9" d="M434.38,364.63c.44-2.18,1.31-33.64,1.31-33.64h-7.12s1.16,31.49,1.61,33.68C432.7,364.71,433.94,364.65,434.38,364.63Z"/><path class="cls-12" d="M432.14,305.8h0l3.57-.24c0-.3.27-4.54-3.57-4.61h0c-3.84.07-3.57,4.31-3.57,4.61l3.57.24h0Z"/><path class="cls-9" d="M432.12,330l1,.11v-.21l2.62-.08c0-.22.21-23.83,0-25-1.67,0-2.84,0-3.59,0s-1.92,0-3.57,0c-.26,1.14.11,24.54.11,24.75l2.47.3v.21Z"/><path class="cls-12" d="M428.52,331.31c-.09,0-.16-.05-.16-.13v-1.79a.16.16,0,0,1,.16-.15H436a.15.15,0,0,1,.15.15v1.79a.14.14,0,0,1-.15.13Z"/><polygon class="cls-14" points="391.34 372.87 394.38 372.87 397.85 380.03 404.13 367.45 407.39 367.45 397.85 385.23 391.34 372.87"/><polygon class="cls-7" points="281.18 430.78 281.18 462.19 288.91 467.88 292.98 475.34 320.95 475.34 320.95 430.59 281.18 430.78"/><polygon class="cls-9" points="281.22 462.25 292.95 475.32 292.41 461.81 281.22 462.25"/><rect class="cls-9" x="289.46" y="439.99" width="12.15" height="0.74"/><rect class="cls-9" x="289.46" y="443.3" width="12.15" height="0.74"/><rect class="cls-9" x="289.46" y="446.61" width="12.15" height="0.74"/><rect class="cls-9" x="289.46" y="449.93" width="12.15" height="0.74"/><rect class="cls-9" x="289.46" y="453.24" width="25.78" height="0.74"/><rect class="cls-9" x="289.46" y="457.66" width="25.78" height="0.74"/><polygon class="cls-49" points="269.01 469.2 236.53 482.73 235.25 473.09 266.88 461.05 269.01 469.2"/><path class="cls-50" d="M267.73,467s.82,2.42,1.11,2.39,1.12-2.5,1.12-2.5Z"/><polygon class="cls-51" points="272.33 461.55 272.33 461.02 265.5 461 265.44 461.53 267.84 467.39 269.8 467.39 272.33 461.55"/><path class="cls-52" d="M272.33,410.62h-6.92V407.9l0,0c.09-.95,1.59-1.67,3.44-1.67s3.35.7,3.45,1.66v2.77Z"/><rect class="cls-14" x="265.41" y="413.63" width="6.92" height="47.91"/><rect class="cls-53" x="267.44" y="413.63" width="2.97" height="47.91"/><path class="cls-54" d="M265.41,410.62V407.9l0,0c.06-.64.81-1.18,2-1.48v4.21Z"/><rect class="cls-7" x="265.41" y="409.8" width="6.92" height="9.62"/><rect class="cls-23" x="265.41" y="409.8" width="2.07" height="9.62"/></g><g id="Layer_5" data-name="Layer 5"><path class="cls-7" d="M370.07,496.71h23.22v4.39H370.07Zm9.3,2.69H384v30.22h-4.62Z"/><path class="cls-7" d="M396.91,496.68h4.62v32.94h-4.62Zm2,14.63h11.22a4.37,4.37,0,0,0,2.34-.64,4.13,4.13,0,0,0,1.57-1.8,6.8,6.8,0,0,0,0-5.36,4.17,4.17,0,0,0-1.56-1.8,4.32,4.32,0,0,0-2.35-.63H398.93v-4.4h11a10.37,10.37,0,0,1,5,1.18,8.35,8.35,0,0,1,3.35,3.34,10.2,10.2,0,0,1,1.19,5,10.1,10.1,0,0,1-1.2,5,8.27,8.27,0,0,1-3.37,3.34,10.31,10.31,0,0,1-5,1.18h-11Zm9,3.37,4.6-1,8.42,16h-5.48Z"/><path class="cls-7" d="M435.19,496.71h3.94l12.13,32.91h-5l-9.12-26.55L428,529.62h-5ZM428.65,518H446v4.39H428.65Z"/><path class="cls-8" d="M462.91,530l-2.59-1.52a10.3,10.3,0,0,1-4-4.3,13.87,13.87,0,0,1-1.43-6.45v-9a13.81,13.81,0,0,1,1.43-6.45,10.32,10.32,0,0,1,4-4.31,11.6,11.6,0,0,1,6-1.53,11.29,11.29,0,0,1,5.21,1.21,11,11,0,0,1,4,3.43,13,13,0,0,1,2.16,5.14h-4.73a7.19,7.19,0,0,0-1.44-2.75,7.06,7.06,0,0,0-2.36-1.87,6.37,6.37,0,0,0-8.69,3,9.36,9.36,0,0,0-.84,4.09v9a9.34,9.34,0,0,0,.84,4.07,6.36,6.36,0,0,0,2.35,2.73,6.46,6.46,0,0,0,3.53,1,6.72,6.72,0,0,0,2.82-.61A6.61,6.61,0,0,0,471.5,523a7.12,7.12,0,0,0,1.44-2.85h4.73a12.82,12.82,0,0,1-2.17,5.14,11.11,11.11,0,0,1-4,3.43,11.39,11.39,0,0,1-5.19,1.21Z"/><path class="cls-7" d="M484.24,496.71h4.61v32.91h-4.61Zm3.62,18.47,14.53-18.47h5.68L487.18,522.1Zm5.47-3.13,3.65-3.37,12.47,20.94h-5.66Z"/><path class="cls-7" d="M520.59,530l-2.13-.46a16.52,16.52,0,0,1-7.43-3.62l2.88-3.53a13,13,0,0,0,4.14,2.45,14.49,14.49,0,0,0,4.91.81,9.9,9.9,0,0,0,5.55-1.32,4.27,4.27,0,0,0,2-3.75v0a3.94,3.94,0,0,0-.9-2.73,5.24,5.24,0,0,0-2.31-1.49,24.57,24.57,0,0,0-3.65-.9l-.15,0-.15,0-.33-.07a34.88,34.88,0,0,1-5.38-1.28,7.52,7.52,0,0,1-3.54-2.6A8.59,8.59,0,0,1,512.6,506v0a9.49,9.49,0,0,1,1.37-5.22,8.55,8.55,0,0,1,4-3.29,15.83,15.83,0,0,1,6.32-1.13,16.18,16.18,0,0,1,3.47.38,17.2,17.2,0,0,1,3.37,1.15,18.91,18.91,0,0,1,3.27,1.91l-2.62,3.66A15.42,15.42,0,0,0,528,501.4a10.7,10.7,0,0,0-3.74-.69,8.81,8.81,0,0,0-5.24,1.35,4.42,4.42,0,0,0-1.87,3.81v0a3.64,3.64,0,0,0,1,2.67,5.68,5.68,0,0,0,2.4,1.43,37.94,37.94,0,0,0,4,1l.17,0,.17,0,.25.05.25,0a28.1,28.1,0,0,1,5,1.45,7.76,7.76,0,0,1,3.35,2.71,8.53,8.53,0,0,1,1.35,5.1v0a9.1,9.1,0,0,1-1.43,5.15,8.9,8.9,0,0,1-4.13,3.26A17.17,17.17,0,0,1,523,530Z"/><path class="cls-7" d="M670,665.14h2.29v16.42H670Zm1.35,14.29h4.45a4,4,0,0,0,2.56-.67,2.31,2.31,0,0,0,.8-1.87v0a3.32,3.32,0,0,0-.29-1.43,2,2,0,0,0-.91-.92,3.48,3.48,0,0,0-1.59-.32h-5V672.1h5a2.73,2.73,0,0,0,1.92-.6,2.72,2.72,0,0,0-.07-3.61,3.27,3.27,0,0,0-2.17-.61h-4.7v-2.14h5.12a5.86,5.86,0,0,1,2.66.55,3.62,3.62,0,0,1,1.61,1.53,5,5,0,0,1,.53,2.37,3.84,3.84,0,0,1-.33,1.59,3.28,3.28,0,0,1-1,1.26,3.74,3.74,0,0,1-1.66.71,3.55,3.55,0,0,1,1.71.71,3.69,3.69,0,0,1,1.11,1.39,4.38,4.38,0,0,1,.38,1.81v0a4.63,4.63,0,0,1-.58,2.35,4,4,0,0,1-1.69,1.57,5.57,5.57,0,0,1-2.55.55h-5.31Z"/><path class="cls-7" d="M685,665.14h2.3v16.42H685Zm1.15,14.23h9.39v2.19h-9.39Z"/><path class="cls-7" d="M700.63,681a5.12,5.12,0,0,1-2-2.12,6.78,6.78,0,0,1-.72-3.18V671a6.72,6.72,0,0,1,.72-3.18,5.06,5.06,0,0,1,2-2.12,6.48,6.48,0,0,1,6,0,5,5,0,0,1,2,2.12,6.72,6.72,0,0,1,.72,3.18v4.65a6.78,6.78,0,0,1-.72,3.18,5.1,5.1,0,0,1-2,2.12,6.48,6.48,0,0,1-6,0Zm4.81-2a3,3,0,0,0,1.2-1.29,4.31,4.31,0,0,0,.42-2V671a4.31,4.31,0,0,0-.42-2,3.08,3.08,0,0,0-1.2-1.3,3.79,3.79,0,0,0-3.58,0,3.12,3.12,0,0,0-1.19,1.3,4.18,4.18,0,0,0-.43,2v4.81a4.18,4.18,0,0,0,.43,2,3,3,0,0,0,1.19,1.29,3.71,3.71,0,0,0,3.58,0Z"/><path class="cls-7" d="M716.82,681.73l-1.3-.76a5.11,5.11,0,0,1-2-2.14,6.91,6.91,0,0,1-.71-3.22v-4.5a6.88,6.88,0,0,1,.71-3.22,5.13,5.13,0,0,1,2-2.15,5.77,5.77,0,0,1,3-.76,5.68,5.68,0,0,1,2.6.6,5.42,5.42,0,0,1,2,1.71,6.46,6.46,0,0,1,1.08,2.56h-2.36a3.68,3.68,0,0,0-.72-1.37,3.53,3.53,0,0,0-1.18-.93,3.16,3.16,0,0,0-1.4-.33,3.13,3.13,0,0,0-1.76.49,3.2,3.2,0,0,0-1.18,1.36,4.79,4.79,0,0,0-.41,2v4.5a4.78,4.78,0,0,0,.41,2,3.15,3.15,0,0,0,1.18,1.36,3.2,3.2,0,0,0,1.76.48,3.43,3.43,0,0,0,1.41-.3,3.38,3.38,0,0,0,1.17-.9,3.65,3.65,0,0,0,.72-1.43h2.36a6.38,6.38,0,0,1-1.09,2.57,5.61,5.61,0,0,1-2,1.71,5.67,5.67,0,0,1-2.59.6Z"/><path class="cls-7" d="M727.45,665.14h2.31v16.42h-2.31Zm1.81,9.22,7.25-9.22h2.83l-10.42,12.67ZM732,672.8l1.82-1.68L740,681.56h-2.82Z"/><path class="cls-7" d="M745.51,681.73l-1.3-.76a5.11,5.11,0,0,1-2-2.14,7,7,0,0,1-.71-3.22v-4.5a7,7,0,0,1,.71-3.22,5.13,5.13,0,0,1,2-2.15,5.79,5.79,0,0,1,3-.76,5.68,5.68,0,0,1,2.6.6,5.42,5.42,0,0,1,2,1.71,6.46,6.46,0,0,1,1.08,2.56h-2.36a3.66,3.66,0,0,0-1.9-2.3,3.16,3.16,0,0,0-1.4-.33,3.13,3.13,0,0,0-1.76.49,3.18,3.18,0,0,0-1.17,1.36,4.64,4.64,0,0,0-.42,2v4.5a4.63,4.63,0,0,0,.42,2,3.13,3.13,0,0,0,1.17,1.36,3.2,3.2,0,0,0,1.76.48,3.43,3.43,0,0,0,1.41-.3,3.38,3.38,0,0,0,1.17-.9,3.52,3.52,0,0,0,.72-1.43h2.36a6.38,6.38,0,0,1-1.09,2.57,5.61,5.61,0,0,1-2,1.71,5.67,5.67,0,0,1-2.59.6Z"/><path class="cls-7" d="M756.14,665.14h2.31v16.42h-2.31Zm1.44,7.24h9.11v2.19h-9.11Zm7.89-7.24h2.3v16.42h-2.3Z"/><path class="cls-7" d="M776.31,665.14h2l6.05,16.42h-2.48l-4.55-13.24-4.55,13.24h-2.48ZM773,675.77h8.64V678H773Z"/><path class="cls-7" d="M789.11,681.56h-2.3V665.14h2.3Z"/><path class="cls-7" d="M793.18,665.14h2.09l8,12.7-.27.29v-13h2.28v16.41h-2.11l-8-12.5.27-.29v12.79h-2.28Z"/><path class="cls-7" d="M770.06,510.23l-1.3-.75a5.13,5.13,0,0,1-2-2.15,7,7,0,0,1-.71-3.22v-4.5a7,7,0,0,1,.71-3.22,5.13,5.13,0,0,1,2-2.15,5.82,5.82,0,0,1,3-.76,5.68,5.68,0,0,1,2.6.6,5.42,5.42,0,0,1,2,1.71,6.46,6.46,0,0,1,1.08,2.56h-2.36a3.61,3.61,0,0,0-.72-1.37,3.53,3.53,0,0,0-1.18-.93,3.16,3.16,0,0,0-1.4-.33,3.12,3.12,0,0,0-2.93,1.85,4.64,4.64,0,0,0-.42,2v4.5a4.63,4.63,0,0,0,.42,2,3.15,3.15,0,0,0,1.17,1.37,3.2,3.2,0,0,0,1.76.48,3.45,3.45,0,0,0,1.41-.31,3.18,3.18,0,0,0,1.17-.9,3.54,3.54,0,0,0,.72-1.42h2.36a6.34,6.34,0,0,1-1.09,2.56,5.42,5.42,0,0,1-2,1.71,5.64,5.64,0,0,1-2.59.6Z"/><path class="cls-7" d="M783.1,509.48a5.12,5.12,0,0,1-2-2.12,6.78,6.78,0,0,1-.72-3.18v-4.65a6.75,6.75,0,0,1,.72-3.18,5.12,5.12,0,0,1,2-2.12,6.48,6.48,0,0,1,6,0,5.19,5.19,0,0,1,2,2.12,6.87,6.87,0,0,1,.71,3.18v4.65a6.9,6.9,0,0,1-.71,3.18,5.19,5.19,0,0,1-2,2.12,6.48,6.48,0,0,1-6,0Zm4.81-2a3.08,3.08,0,0,0,1.2-1.3,4.31,4.31,0,0,0,.42-1.95v-4.81a4.31,4.31,0,0,0-.42-1.95,3.08,3.08,0,0,0-1.2-1.3,3.47,3.47,0,0,0-1.79-.45,3.53,3.53,0,0,0-1.79.45,3.12,3.12,0,0,0-1.19,1.3,4.31,4.31,0,0,0-.43,1.95v4.81a4.31,4.31,0,0,0,.43,1.95,3.12,3.12,0,0,0,1.19,1.3,3.53,3.53,0,0,0,1.79.45A3.47,3.47,0,0,0,787.91,507.51Z"/><path class="cls-7" d="M807.42,493.65h2.15v16.41h-2.24V497.77l.11.72-4,9.29h-1.61l-4-9.06.12-1v12.29h-2.25V493.65h2.16l4.82,10.84Z"/><path class="cls-7" d="M813.64,493.65h2.3v16.41h-2.3Zm1.18,7.85h5.25a2.36,2.36,0,0,0,1.31-.35,2.3,2.3,0,0,0,.88-1,3.32,3.32,0,0,0,.31-1.48,3.36,3.36,0,0,0-.31-1.49,2.38,2.38,0,0,0-.88-1,2.44,2.44,0,0,0-1.31-.35h-5.25v-2.19H820a5.27,5.27,0,0,1,2.58.62,4.34,4.34,0,0,1,1.73,1.77,5.93,5.93,0,0,1,0,5.28,4.29,4.29,0,0,1-1.73,1.75,5.16,5.16,0,0,1-2.58.63h-5.18Z"/><path class="cls-7" d="M830.23,509.52a4.75,4.75,0,0,1-2-2.09,7.46,7.46,0,0,1-.68-3.31V493.65h2.31V504.2a4,4,0,0,0,.9,2.78,3.27,3.27,0,0,0,2.55,1,3.31,3.31,0,0,0,2.57-1,3.91,3.91,0,0,0,.91-2.78V493.65h2.3v10.47a7.32,7.32,0,0,1-.68,3.31,4.75,4.75,0,0,1-2,2.09,6.49,6.49,0,0,1-3.13.71A6.41,6.41,0,0,1,830.23,509.52Z"/><path class="cls-7" d="M840.7,493.65h11.59v2.19H840.7Zm4.64,1.34h2.31v15.07h-2.31Z"/><path class="cls-7" d="M854.09,493.65h2.31v16.41h-2.31Zm1.12,0h9.43v2.19h-9.43Zm0,7.17h8.19V503h-8.19Zm0,7.05h9.43v2.19h-9.43Z"/><path class="cls-7" d="M867.91,493.64h2.31v16.42h-2.31Zm1,7.29h5.6a2.11,2.11,0,0,0,2-1.21,3.18,3.18,0,0,0,.27-1.34,3.14,3.14,0,0,0-.27-1.34,2.15,2.15,0,0,0-.78-.9,2.18,2.18,0,0,0-1.17-.31h-5.6v-2.19h5.51a5.16,5.16,0,0,1,2.5.58,4.07,4.07,0,0,1,1.67,1.67,5.51,5.51,0,0,1,0,5,4,4,0,0,1-1.67,1.66,5.15,5.15,0,0,1-2.49.59h-5.51Zm4.47,1.68,2.29-.52,4.2,8h-2.73Z"/><path class="cls-7" d="M885.25,493.65h2.5l3.94,12.87,3.94-12.87h2.51l-5.35,16.41H890.6Z"/><path class="cls-7" d="M902.81,510.06h-2.3V493.65h2.3Z"/><path class="cls-7" d="M910.63,510.23l-1.06-.22a8.28,8.28,0,0,1-3.71-1.81l1.44-1.76a6.46,6.46,0,0,0,2.06,1.22,7.2,7.2,0,0,0,2.45.4,5,5,0,0,0,2.77-.66,2.12,2.12,0,0,0,1-1.86v0a2,2,0,0,0-.45-1.36,2.64,2.64,0,0,0-1.15-.74,13.78,13.78,0,0,0-1.82-.45H912l-.17,0a17.42,17.42,0,0,1-2.68-.64,3.72,3.72,0,0,1-1.76-1.3,4.27,4.27,0,0,1-.74-2.68h0a4.83,4.83,0,0,1,.68-2.61,4.37,4.37,0,0,1,2-1.64,8,8,0,0,1,3.15-.56,7.77,7.77,0,0,1,1.73.19,8.76,8.76,0,0,1,1.68.57,9.33,9.33,0,0,1,1.63.95L916.2,497a7.52,7.52,0,0,0-1.86-1,5.4,5.4,0,0,0-1.87-.34,4.41,4.41,0,0,0-2.62.67,2.2,2.2,0,0,0-.93,1.9h0a1.81,1.81,0,0,0,.48,1.33,2.8,2.8,0,0,0,1.2.72,20.39,20.39,0,0,0,2,.48l.09,0h.08l.12,0,.13,0a13.45,13.45,0,0,1,2.49.72,3.89,3.89,0,0,1,1.67,1.35,4.26,4.26,0,0,1,.67,2.55v0a4.56,4.56,0,0,1-.71,2.57,4.39,4.39,0,0,1-2.06,1.62,8.39,8.39,0,0,1-3.26.56Z"/><path class="cls-7" d="M923.42,510.06h-2.3V493.65h2.3Z"/><path class="cls-7" d="M929.89,509.48a5.12,5.12,0,0,1-2-2.12,6.78,6.78,0,0,1-.72-3.18v-4.65a6.75,6.75,0,0,1,.72-3.18,5.12,5.12,0,0,1,2-2.12,6.48,6.48,0,0,1,6.05,0,5.19,5.19,0,0,1,2,2.12,6.87,6.87,0,0,1,.71,3.18v4.65a6.9,6.9,0,0,1-.71,3.18,5.19,5.19,0,0,1-2,2.12,6.48,6.48,0,0,1-6.05,0Zm4.81-2a3.08,3.08,0,0,0,1.2-1.3,4.31,4.31,0,0,0,.42-1.95v-4.81a4.31,4.31,0,0,0-.42-1.95,3.08,3.08,0,0,0-1.2-1.3,3.77,3.77,0,0,0-3.57,0,3.08,3.08,0,0,0-1.2,1.3,4.31,4.31,0,0,0-.43,1.95v4.81a4.31,4.31,0,0,0,.43,1.95,3.08,3.08,0,0,0,1.2,1.3,3.77,3.77,0,0,0,3.57,0Z"/><path class="cls-7" d="M942.41,493.65h2.09l8,12.69-.28.29v-13h2.29v16.4h-2.12l-8-12.5.27-.29v12.79h-2.28Z"/><path class="cls-7" d="M662.33,333.71h2.31v16.42h-2.31Zm1.13,0h9.2v2.19h-9.2Zm0,7.32h8v2.19h-8Z"/><path class="cls-7" d="M677.56,350.13h-2.3V333.71h2.3Z"/><path class="cls-7" d="M681.63,333.71h2.09l8,12.69-.28.3v-13h2.28v16.41h-2.11l-8-12.5.27-.3v12.8h-2.28Z"/><path class="cls-7" d="M695.56,333.71h11.59v2.19H695.56Zm4.64,1.34h2.3v15.08h-2.3Z"/><path class="cls-7" d="M709,333.71h2.31v16.42H709Zm1.12,0h9.43v2.19h-9.43Zm0,7.17h8.19v2.19h-8.19Zm0,7.06h9.43v2.19h-9.43Z"/><path class="cls-7" d="M726.44,350.3l-1.29-.76a5.19,5.19,0,0,1-2-2.14,7,7,0,0,1-.71-3.22v-4.51a7,7,0,0,1,.71-3.22,5.28,5.28,0,0,1,2-2.15,5.86,5.86,0,0,1,3-.76,5.52,5.52,0,0,1,2.59.61,5.42,5.42,0,0,1,2,1.71,6.4,6.4,0,0,1,1.08,2.56h-2.36a3.66,3.66,0,0,0-.71-1.37,3.38,3.38,0,0,0-1.18-.93,3.19,3.19,0,0,0-1.4-.33,3.26,3.26,0,0,0-1.77.48,3.31,3.31,0,0,0-1.17,1.36,4.71,4.71,0,0,0-.42,2v4.51a4.69,4.69,0,0,0,.42,2,3.19,3.19,0,0,0,1.17,1.36,3.26,3.26,0,0,0,1.77.48,3.3,3.3,0,0,0,2.58-1.21,3.59,3.59,0,0,0,.71-1.42h2.36a6.46,6.46,0,0,1-1.08,2.56,5.57,5.57,0,0,1-4.57,2.32Z"/><path class="cls-7" d="M737.08,333.71h2.3v16.42h-2.3Zm1.43,7.24h9.11v2.19h-9.11Zm7.89-7.24h2.31v16.42H746.4Z"/><path class="cls-7" d="M74.62,339.49h2.3v16.42h-2.3Zm1.11,0h9.43v2.19H75.73Zm0,7.17h8.19v2.19H75.73Zm0,7.06h9.43v2.19H75.73Z"/><path class="cls-7" d="M88.44,339.49h2.3v16.42h-2.3ZM90,353.72h3.72a4,4,0,0,0,2.82-1,3.47,3.47,0,0,0,1-2.65v-4.84a3.47,3.47,0,0,0-1-2.65,4,4,0,0,0-2.82-.95H90v-2.19h3.65a7.6,7.6,0,0,1,3.38.69,4.82,4.82,0,0,1,2.13,2,6.44,6.44,0,0,1,.73,3.18V350a6.44,6.44,0,0,1-.73,3.18,4.79,4.79,0,0,1-2.14,2,7.6,7.6,0,0,1-3.38.69H90Z"/><path class="cls-7" d="M101.35,339.49h11.59v2.19H101.35Zm4.64,1.34h2.31v15.08H106Z"/><path class="cls-7" d="M114.74,339.49h2.31v16.42h-2.31Zm1.12,0h9.43v2.19h-9.43Zm0,7.17h8.19v2.19h-8.19Zm0,7.06h9.43v2.19h-9.43Z"/><path class="cls-7" d="M132.23,356.08l-1.29-.76a5.11,5.11,0,0,1-2-2.14,6.91,6.91,0,0,1-.72-3.22v-4.51a6.84,6.84,0,0,1,.72-3.21,5.16,5.16,0,0,1,2-2.16,5.86,5.86,0,0,1,3-.76,5.57,5.57,0,0,1,4.58,2.32,6.25,6.25,0,0,1,1.07,2.56h-2.36a3.66,3.66,0,0,0-.71-1.37,3.5,3.5,0,0,0-1.18-.93,3.16,3.16,0,0,0-1.4-.33,3.11,3.11,0,0,0-2.94,1.85,4.63,4.63,0,0,0-.42,2V350a4.66,4.66,0,0,0,.42,2,3.15,3.15,0,0,0,1.18,1.36,3.2,3.2,0,0,0,1.76.48,3.39,3.39,0,0,0,1.4-.3,3.44,3.44,0,0,0,1.18-.91,3.59,3.59,0,0,0,.71-1.42h2.36a6.26,6.26,0,0,1-1.08,2.56,5.45,5.45,0,0,1-2,1.71,5.51,5.51,0,0,1-2.58.61Z"/><path class="cls-7" d="M142.87,339.49h2.3v16.42h-2.3Zm1.43,7.24h9.11v2.19H144.3Zm7.89-7.24h2.31v16.42h-2.31Z"/><path class="cls-7" d="M111.61,512H109.3V495.57h2.31Z"/><path class="cls-7" d="M118.08,511.41a5.12,5.12,0,0,1-2-2.12,6.78,6.78,0,0,1-.72-3.18v-4.65a6.72,6.72,0,0,1,.72-3.18,5.06,5.06,0,0,1,2-2.12,6.4,6.4,0,0,1,6,0,5.1,5.1,0,0,1,2,2.12,6.72,6.72,0,0,1,.72,3.18v4.65a6.78,6.78,0,0,1-.72,3.18,5.16,5.16,0,0,1-2,2.12,6.48,6.48,0,0,1-6,0Zm4.81-2a3,3,0,0,0,1.2-1.3,4.29,4.29,0,0,0,.42-1.94v-4.81a4.31,4.31,0,0,0-.42-1.95,3.14,3.14,0,0,0-1.2-1.3,3.71,3.71,0,0,0-3.58,0,3.21,3.21,0,0,0-1.2,1.3,4.31,4.31,0,0,0-.42,1.95v4.81a4.29,4.29,0,0,0,.42,1.94,3.09,3.09,0,0,0,1.2,1.3,3.71,3.71,0,0,0,3.58,0Z"/><path class="cls-7" d="M128.34,495.57h11.58v2.19H128.34Zm4.64,1.35h2.3V512H133Z"/><path class="cls-7" d="M36.32,674.78h2.15V691.2H36.22V678.9l.12.72-4,9.3H30.69l-4-9.07.11-1v12.3H24.52V674.78h2.15l4.82,10.84Z"/><path class="cls-7" d="M47,674.78h2L55,691.2H52.54L48,678,43.44,691.2H41ZM43.74,685.4h8.64v2.19H43.74Z"/><path class="cls-7" d="M60.84,691.37l-1.29-.76a5.16,5.16,0,0,1-2-2.15,7,7,0,0,1-.71-3.21v-4.51a7,7,0,0,1,.71-3.22,5.22,5.22,0,0,1,2-2.15,5.76,5.76,0,0,1,3-.76,5.68,5.68,0,0,1,2.6.6,5.61,5.61,0,0,1,2,1.71,6.51,6.51,0,0,1,1.08,2.57H65.84a3.54,3.54,0,0,0-.72-1.37,3.35,3.35,0,0,0-1.18-.94,3.26,3.26,0,0,0-1.4-.32,3.23,3.23,0,0,0-1.76.48,3.31,3.31,0,0,0-1.17,1.36,4.71,4.71,0,0,0-.42,2v4.51a4.69,4.69,0,0,0,.42,2,3.19,3.19,0,0,0,1.17,1.36,3.23,3.23,0,0,0,1.76.48,3.29,3.29,0,0,0,1.41-.31,3.18,3.18,0,0,0,1.17-.9,3.48,3.48,0,0,0,.72-1.42H68.2a6.46,6.46,0,0,1-1.08,2.56,5.53,5.53,0,0,1-2,1.71,5.65,5.65,0,0,1-2.59.61Z"/><path class="cls-7" d="M71.47,674.78h2.31V691.2H71.47ZM72.91,682H82v2.19H72.91Zm7.89-7.24h2.3V691.2H80.8Z"/><path class="cls-7" d="M89.47,691.2h-2.3V674.78h2.3Z"/><path class="cls-7" d="M93.54,674.78h2.09l8,12.69-.27.29v-13h2.28v16.4h-2.11l-8-12.49.27-.3v12.79H93.54Z"/><path class="cls-7" d="M109.73,674.78H112V691.2h-2.3Zm1.12,0h9.42V677h-9.42Zm0,7.17H119v2.19h-8.18Zm0,7.06h9.42v2.19h-9.42Z"/><path class="cls-7" d="M127.5,674.78h2.3V691.2h-2.3ZM128.65,689H138v2.19h-9.39Z"/><path class="cls-7" d="M140.75,674.78h2.31V691.2h-2.31Zm1.12,0h9.43V677h-9.43Zm0,7.17h8.19v2.19h-8.19Zm0,7.06h9.43v2.19h-9.43Z"/><path class="cls-7" d="M159,674.78h2l6.05,16.42h-2.48L160,678l-4.55,13.25H153Zm-3.26,10.62h8.64v2.19h-8.64Z"/><path class="cls-7" d="M169.54,674.77h2.31V691.2h-2.31Zm1,7.29h5.6a2.14,2.14,0,0,0,1.16-.31,2.11,2.11,0,0,0,.79-.9,3.46,3.46,0,0,0,0-2.68,2.19,2.19,0,0,0-.78-.89,2.1,2.1,0,0,0-1.17-.32h-5.6v-2.19h5.51a5.05,5.05,0,0,1,2.5.59,4,4,0,0,1,1.67,1.66,5.55,5.55,0,0,1,0,5,4.22,4.22,0,0,1-1.68,1.67,5.14,5.14,0,0,1-2.49.58h-5.51Zm4.47,1.68,2.29-.52,4.2,8h-2.73Z"/><path class="cls-7" d="M186.92,691.2h-2.3V674.78h2.3Z"/><path class="cls-7" d="M191,674.78h2.09l8,12.69-.27.29v-13h2.28v16.4H201l-8-12.49.27-.3v12.79H191Z"/><path class="cls-7" d="M209.48,691.2h-2.3V674.78h2.3Z"/><path class="cls-7" d="M213.54,674.78h2.09l8,12.69-.27.29v-13h2.28v16.4h-2.11l-8-12.49.28-.3v12.79h-2.29Z"/><path class="cls-7" d="M241,682.36v2.86a7.08,7.08,0,0,1-.71,3.23,5.12,5.12,0,0,1-2,2.15,5.85,5.85,0,0,1-3,.77,6.22,6.22,0,0,1-3.05-.72,5,5,0,0,1-2-2,6.18,6.18,0,0,1-.72-3v-4.84a6.91,6.91,0,0,1,.71-3.22,5.15,5.15,0,0,1,2-2.15,5.87,5.87,0,0,1,3-.76,5.53,5.53,0,0,1,4.6,2.31,6.51,6.51,0,0,1,1.08,2.57h-2.49a3.69,3.69,0,0,0-.69-1.42,3.4,3.4,0,0,0-1.14-.9,3.11,3.11,0,0,0-1.36-.31,3.15,3.15,0,0,0-3,1.84,4.86,4.86,0,0,0-.41,2v4.84a3.81,3.81,0,0,0,.43,1.86,3.07,3.07,0,0,0,1.21,1.24,3.67,3.67,0,0,0,1.81.44,3.41,3.41,0,0,0,1.79-.46,3,3,0,0,0,1.18-1.33,4.67,4.67,0,0,0,.42-2.06v-.71h-3.33v-2.2Z"/></g></g></svg>